<?xml version="1.0" encoding="utf-8"?>
<!-- Generator: Adobe Illustrator 16.0.0, SVG Export Plug-In . SVG Version: 6.00 Build 0)  -->
<!DOCTYPE svg PUBLIC "-//W3C//DTD SVG 1.1//EN" "http://www.w3.org/Graphics/SVG/1.1/DTD/svg11.dtd">
<svg version="1.1" id="logo" xmlns="http://www.w3.org/2000/svg" xmlns:xlink="http://www.w3.org/1999/xlink" x="0px" y="0px"
	 width="200px" height="200px" viewBox="0 0 200 200" enable-background="new 0 0 200 200" xml:space="preserve">
<g>
	<path fill-rule="evenodd" clip-rule="evenodd" fill="#EC4528" d="M106.248,81.563c4.667,4.751,9.009,9.291,13.498,13.679
		c1.524,1.49,0.427,2.878,0.312,4.291c-0.478,5.697,3.023,10.955,8.321,12.349c5.561,1.465,11.158-1.068,13.565-6.138
		c2.355-4.956,0.882-10.852-3.532-14.141c-2.144-1.598-4.6-2.541-7.212-2.133c-2.742,0.431-4.532-0.508-6.345-2.466
		c-3.657-3.96-7.515-7.743-11.392-11.491c-1.418-1.367-1.868-2.72-1.713-4.73c0.609-7.861-5.001-13.407-12.766-12.612
		c-1.777,0.18-2.873-0.23-4.035-1.423c-4.39-4.509-8.795-9.011-13.319-13.382c-1.578-1.522-1.579-2.481,0.018-3.982
		c3.835-3.604,7.455-7.442,11.262-11.081c4.548-4.352,9.922-4.399,14.35,0.038c21.493,21.558,42.951,43.155,64.365,64.795
		c4.477,4.528,4.512,9.846,0.032,14.315c-21.555,21.496-43.157,42.951-64.819,64.343c-4.375,4.317-9.593,4.226-13.989-0.175
		c-21.592-21.644-43.137-43.332-64.633-65.072c-4.308-4.358-4.283-9.69,0.045-14.031c14.246-14.277,28.617-28.427,42.873-42.69
		c1.492-1.49,2.357-1.293,3.702,0.103c4.272,4.444,8.61,8.83,13.038,13.119c1.367,1.325,1.684,2.597,1.353,4.432
		c-0.877,4.898,0.808,8.909,4.961,11.642c1.53,1.005,1.916,2.111,1.903,3.792c-0.092,11.816-0.143,23.635-0.112,35.452
		c0.007,1.867-0.602,2.954-2.149,4.068c-5.782,4.164-6.757,11.702-2.39,16.876c4.326,5.124,11.98,5.515,16.785,0.864
		c4.97-4.812,4.596-12.563-0.928-17.293c-1.126-0.965-1.966-1.765-1.95-3.431c0.125-12.202,0.153-24.403,0.229-36.606
		C105.575,82.634,105.785,82.43,106.248,81.563z"/>
</g>
</svg>
