<?xml version="1.0" encoding="utf-8"?>
<!-- Generator: Adobe Illustrator 16.0.0, SVG Export Plug-In . SVG Version: 6.00 Build 0)  -->
<!DOCTYPE svg PUBLIC "-//W3C//DTD SVG 1.1//EN" "http://www.w3.org/Graphics/SVG/1.1/DTD/svg11.dtd">
<svg version="1.1" id="logo" xmlns="http://www.w3.org/2000/svg" xmlns:xlink="http://www.w3.org/1999/xlink" x="0px" y="0px"
	 width="200px" height="200px" viewBox="0 0 200 200" enable-background="new 0 0 200 200" xml:space="preserve">
<g>
	<path fill-rule="evenodd" clip-rule="evenodd" fill="#8EC74E" d="M105.894,24.982c-0.058,0.435,0.309,0.244,0.452,0.256
		c3.307,0.258,6.576,0.768,9.814,1.484c11.547,2.542,21.925,7.533,31.085,14.994c11.363,9.253,19.37,20.854,24.021,34.758
		c1.782,5.333,2.964,10.802,3.43,16.399c1.697,20.43-3.722,38.752-16.69,54.676c-10.41,12.777-23.747,21.117-39.704,25.238
		c-3.915,1.009-7.908,1.671-11.951,1.962c-0.188,0.012-0.372,0.074-0.561,0.116c-0.019,0.005-0.049,0.045-0.05,0.051
		c0.023,0.034,0.058,0.071,0.088,0.105c-0.342,0.001-0.684,0-1.025,0c0.031-0.077,0.01-0.127-0.073-0.127
		c-0.083,0.001-0.107,0.049-0.074,0.126c-0.195,0.001-0.39,0-0.586,0.002c-0.009-0.03-0.019-0.061-0.025-0.087
		c-0.041,0.028-0.082,0.058-0.121,0.086c-2.638-0.002-5.276-0.002-7.912-0.006c-0.04-0.026-0.081-0.055-0.122-0.082
		c-0.009,0.029-0.016,0.055-0.023,0.082c-0.197,0.001-0.393,0-0.588,0.003c0.034-0.077,0.01-0.128-0.071-0.13
		c-0.083-0.001-0.111,0.054-0.075,0.128c-0.343,0-0.683-0.001-1.026,0.001c0.054-0.437-0.307-0.248-0.451-0.258
		c-3.307-0.259-6.575-0.771-9.815-1.481c-11.547-2.543-21.923-7.537-31.085-14.995c-11.364-9.255-19.378-20.854-24.019-34.76
		c-2.132-6.386-3.359-12.955-3.653-19.685c-0.836-19.228,4.724-36.395,16.859-51.338c9.155-11.272,20.729-19.152,34.507-23.757
		c5.586-1.869,11.321-3.04,17.199-3.493c0.19-0.015,0.377-0.078,0.563-0.118c0.02-0.005,0.049-0.044,0.05-0.049
		c-0.025-0.039-0.058-0.073-0.09-0.106c0.344-0.001,0.687,0,1.027,0c-0.035,0.076-0.007,0.125,0.074,0.126
		c0.08,0.001,0.107-0.05,0.071-0.126c0.196,0.001,0.393,0,0.587,0c0.01,0.029,0.02,0.057,0.026,0.084
		c0.041-0.027,0.081-0.055,0.121-0.082c2.636-0.001,5.273,0,7.911,0.002c0.042,0.028,0.082,0.056,0.123,0.082
		c0.007-0.027,0.016-0.054,0.024-0.083c0.196,0.001,0.392,0,0.586,0c-0.034,0.075-0.01,0.127,0.074,0.126
		c0.081,0,0.108-0.051,0.073-0.125C105.211,24.982,105.551,24.983,105.894,24.982z M85.279,105.294
		c0.004-8.814,0.008-17.633,0.01-26.446c0-1.719-0.313-2.032-2.059-2.031c-1.392-0.001-2.783-0.001-4.176-0.001
		c-2.332-0.001-2.466,0.134-2.468,2.499c-0.008,16.852-0.013,33.699-0.023,50.549c-0.002,3.325-2.217,5.752-5.519,6.061
		c-2.338,0.218-4.417-0.552-6.404-1.676c-3.859-2.185-7.713-4.384-11.587-6.543c-0.796-0.443-1.142-0.999-1.139-1.924
		c0.027-17.216,0.033-34.435,0.022-51.648c0-0.956,0.366-1.528,1.179-1.988c15.278-8.586,30.551-17.186,45.817-25.801
		c0.763-0.43,1.403-0.451,2.179-0.013c15.234,8.616,30.477,17.219,45.734,25.8c0.9,0.505,1.266,1.121,1.264,2.156
		c-0.032,17.022-0.045,34.041-0.015,51.063c0.004,1.294-0.414,2.028-1.542,2.659c-8.135,4.532-16.237,9.125-24.35,13.698
		c-6.986,3.938-13.975,7.872-20.955,11.823c-0.871,0.496-1.613,0.533-2.516-0.005c-3.667-2.18-7.378-4.282-11.059-6.438
		c-0.704-0.409-1.318-0.472-2.046-0.051c-2.007,1.165-4.103,2.143-6.342,2.793c-0.345,0.1-0.658,0.306-0.971,0.491
		c-0.352,0.208-0.381,0.447-0.067,0.75c0.412,0.393,0.869,0.712,1.355,0.992c5.126,2.97,10.228,5.979,15.392,8.887
		c3.229,1.813,6.572,1.803,9.861,0.067c1.552-0.822,3.061-1.717,4.592-2.581c14.018-7.895,28.044-15.775,42.045-23.704
		c3.296-1.867,5.016-4.792,5.022-8.599c0.028-17.413,0.038-34.823,0.021-52.234c-0.003-3.802-1.697-6.722-5.01-8.602
		c-15.291-8.667-30.603-17.299-45.893-25.966c-3.773-2.136-7.48-2.117-11.247,0.011c-15.325,8.66-30.666,17.284-45.979,25.96
		c-3.176,1.797-4.867,4.625-4.875,8.291c-0.038,17.56-0.04,35.118-0.025,52.675c0,3.579,1.596,6.428,4.66,8.197
		c4.646,2.681,9.246,5.447,14.071,7.799c3.997,1.947,8.198,2.644,12.59,1.819c4.377-0.816,7.618-3.116,9.3-7.365
		c0.804-2.024,1.131-4.13,1.137-6.296C85.274,122.047,85.275,113.67,85.279,105.294z M114.167,126.012
		c2.092-0.032,4.184-0.083,6.266-0.357c3.53-0.465,6.947-1.284,10.076-3.058c2.859-1.623,5.064-3.85,6.234-6.975
		c0.887-2.374,1.049-4.817,0.795-7.345c-0.392-3.893-2.337-6.655-5.723-8.463c-2.943-1.572-6.174-2.268-9.409-2.894
		c-2.383-0.457-4.791-0.775-7.206-1.054c-2.199-0.253-4.385-0.649-6.568-1.019c-1.847-0.312-3.684-0.693-5.445-1.336
		c-1.184-0.432-2.266-1.125-2.513-2.469c-0.377-2.038,0.133-4.248,2.098-5.539c0.956-0.628,1.998-1.057,3.104-1.327
		c2.886-0.704,5.827-0.706,8.771-0.624c2.346,0.065,4.657,0.333,6.879,1.193c1.444,0.561,2.663,1.36,3.611,2.629
		c0.946,1.267,1.478,2.68,1.851,4.189c0.163,0.666,0.446,1.271,1.263,1.278c2.073,0.019,4.151,0.046,6.228-0.001
		c0.849-0.019,1.309-0.453,1.301-1.376c-0.014-0.953-0.105-1.889-0.316-2.804c-1.007-4.359-3.172-7.891-7.245-10.067
		c-3.658-1.959-7.615-2.775-11.698-3.034c-1.758-0.112-3.532-0.089-5.304-0.059c-3.136,0.046-6.198,0.431-9.188,1.358
		c-2.959,0.92-5.64,2.353-7.693,4.728c-2.568,2.97-3.376,6.468-2.994,10.335c0.431,4.338,2.767,7.253,6.561,9.122
		c2.719,1.341,5.659,1.979,8.621,2.447c2.811,0.443,5.645,0.758,8.481,1.035c2.879,0.282,5.719,0.753,8.512,1.508
		c1.229,0.33,2.443,0.746,3.469,1.538c1.629,1.255,1.458,3.035,1.198,4.737c-0.316,2.071-1.776,3.271-3.586,4.118
		c-2.233,1.047-4.645,1.321-7.046,1.425c-2.673,0.115-5.356,0.129-8.036-0.102c-1.784-0.157-3.532-0.427-5.215-1.053
		c-1.39-0.515-2.745-1.127-3.698-2.296c-1.182-1.448-1.825-3.158-2.082-5.017c-0.17-1.271-0.574-1.593-1.884-1.598
		c-1.83-0.008-3.661-0.012-5.493-0.01c-0.953,0.007-1.519,0.598-1.55,1.552c-0.03,1.023,0.143,2.021,0.315,3.021
		c0.439,2.544,1.431,4.863,3.123,6.81c2.461,2.836,5.69,4.467,9.25,5.443C106.161,125.665,110.149,126.013,114.167,126.012z"/>
	<path fill-rule="evenodd" clip-rule="evenodd" fill="#1A1A1A" d="M85.279,105.294c-0.004,8.376-0.005,16.753-0.013,25.128
		c-0.006,2.166-0.333,4.271-1.137,6.296c-1.682,4.249-4.923,6.549-9.3,7.365c-4.392,0.824-8.593,0.128-12.59-1.819
		c-4.825-2.352-9.426-5.118-14.071-7.799c-3.064-1.77-4.66-4.618-4.66-8.197c-0.015-17.558-0.013-35.115,0.025-52.675
		c0.008-3.666,1.699-6.493,4.875-8.291c15.313-8.676,30.654-17.3,45.979-25.96c3.767-2.128,7.474-2.147,11.247-0.011
		c15.29,8.667,30.602,17.299,45.893,25.966c3.313,1.879,5.007,4.799,5.01,8.602c0.017,17.411,0.007,34.822-0.021,52.234
		c-0.007,3.807-1.727,6.731-5.022,8.599c-14.001,7.929-28.027,15.81-42.045,23.704c-1.531,0.864-3.04,1.759-4.592,2.581
		c-3.289,1.735-6.633,1.746-9.861-0.067c-5.164-2.907-10.266-5.917-15.392-8.887c-0.486-0.28-0.943-0.6-1.355-0.992
		c-0.313-0.303-0.284-0.542,0.067-0.75c0.313-0.186,0.626-0.392,0.971-0.491c2.239-0.65,4.335-1.628,6.342-2.793
		c0.728-0.421,1.342-0.358,2.046,0.051c3.681,2.156,7.392,4.259,11.059,6.438c0.902,0.538,1.645,0.501,2.516,0.005
		c6.98-3.951,13.969-7.886,20.955-11.823c8.112-4.573,16.215-9.166,24.35-13.698c1.128-0.631,1.546-1.365,1.542-2.659
		c-0.03-17.021-0.018-34.041,0.015-51.063c0.002-1.035-0.363-1.65-1.264-2.156c-15.258-8.582-30.5-17.185-45.734-25.8
		c-0.775-0.438-1.416-0.417-2.179,0.013c-15.267,8.615-30.539,17.215-45.817,25.801c-0.813,0.459-1.179,1.032-1.179,1.988
		c0.011,17.214,0.005,34.433-0.022,51.648c-0.003,0.925,0.343,1.48,1.139,1.924c3.874,2.159,7.728,4.358,11.587,6.543
		c1.987,1.124,4.066,1.894,6.404,1.676c3.302-0.309,5.517-2.735,5.519-6.061c0.011-16.85,0.016-33.697,0.023-50.549
		c0.002-2.365,0.136-2.5,2.468-2.499c1.393,0,2.784,0,4.176,0.001c1.746,0,2.059,0.313,2.059,2.031
		C85.287,87.661,85.283,96.479,85.279,105.294z"/>
	<path fill-rule="evenodd" clip-rule="evenodd" fill="#1A1A1A" d="M114.167,126.012c-4.018,0.001-8.006-0.347-11.889-1.409
		c-3.56-0.977-6.789-2.607-9.25-5.443c-1.692-1.946-2.684-4.266-3.123-6.81c-0.173-1-0.346-1.998-0.315-3.021
		c0.031-0.954,0.597-1.545,1.55-1.552c1.832-0.002,3.663,0.001,5.493,0.01c1.31,0.005,1.714,0.326,1.884,1.598
		c0.257,1.859,0.9,3.569,2.082,5.017c0.953,1.169,2.309,1.781,3.698,2.296c1.683,0.626,3.431,0.896,5.215,1.053
		c2.68,0.23,5.363,0.217,8.036,0.102c2.401-0.104,4.813-0.378,7.046-1.425c1.81-0.848,3.27-2.047,3.586-4.118
		c0.26-1.702,0.431-3.482-1.198-4.737c-1.025-0.792-2.24-1.208-3.469-1.538c-2.793-0.755-5.633-1.227-8.512-1.508
		c-2.837-0.277-5.671-0.592-8.481-1.035c-2.962-0.467-5.902-1.106-8.621-2.447c-3.794-1.869-6.13-4.784-6.561-9.122
		c-0.382-3.867,0.426-7.365,2.994-10.335c2.054-2.375,4.734-3.808,7.693-4.728c2.99-0.927,6.053-1.312,9.188-1.358
		c1.771-0.03,3.546-0.054,5.304,0.059c4.083,0.258,8.04,1.075,11.698,3.034c4.073,2.176,6.238,5.708,7.245,10.067
		c0.211,0.916,0.303,1.852,0.316,2.804c0.008,0.923-0.452,1.357-1.301,1.376c-2.076,0.048-4.154,0.021-6.228,0.001
		c-0.816-0.007-1.1-0.612-1.263-1.278c-0.373-1.509-0.904-2.922-1.851-4.189c-0.948-1.27-2.167-2.068-3.611-2.629
		c-2.222-0.861-4.533-1.128-6.879-1.193c-2.943-0.082-5.885-0.08-8.771,0.624c-1.105,0.27-2.147,0.699-3.104,1.327
		c-1.965,1.291-2.475,3.5-2.098,5.539c0.247,1.344,1.329,2.038,2.513,2.469c1.762,0.643,3.599,1.024,5.445,1.336
		c2.184,0.37,4.369,0.766,6.568,1.019c2.415,0.279,4.823,0.597,7.206,1.054c3.235,0.625,6.466,1.321,9.409,2.894
		c3.386,1.809,5.331,4.571,5.723,8.463c0.254,2.527,0.092,4.971-0.795,7.345c-1.17,3.125-3.375,5.352-6.234,6.975
		c-3.129,1.773-6.546,2.593-10.076,3.058C118.35,125.929,116.258,125.979,114.167,126.012z"/>
</g>
</svg>
