<?xml version="1.0" encoding="utf-8"?>
<!-- Generator: Adobe Illustrator 16.0.0, SVG Export Plug-In . SVG Version: 6.00 Build 0)  -->
<!DOCTYPE svg PUBLIC "-//W3C//DTD SVG 1.1//EN" "http://www.w3.org/Graphics/SVG/1.1/DTD/svg11.dtd">
<svg version="1.1" id="logo" xmlns="http://www.w3.org/2000/svg" xmlns:xlink="http://www.w3.org/1999/xlink" x="0px" y="0px"
	 width="200px" height="200px" viewBox="0 0 200 200" enable-background="new 0 0 200 200" xml:space="preserve">
<g>
	<path fill-rule="evenodd" clip-rule="evenodd" fill="#FBFBFB" stroke="#FFFFFF" stroke-width="3" stroke-miterlimit="10" d="
		M73.329,102.181c-6.596,0.005-13.194,0.028-19.791-0.005c-0.916-0.003-1.185,0.238-1.143,1.155
		c0.113,2.476,0.336,4.925,1.171,7.278c2.163,6.082,7.65,10.063,14.442,10.457c4.167,0.242,8.152-0.264,11.642-2.855
		c2.188-1.627,3.762-3.665,4.407-6.332c0.159-0.653,0.435-0.835,1.068-0.825c2.427,0.028,4.858,0.04,7.284-0.012
		c0.845-0.018,0.88,0.249,0.724,0.98c-1.807,8.559-8.877,15.12-17.905,16.599c-4.444,0.727-8.877,0.723-13.258-0.335
		c-7.332-1.771-12.861-6.014-15.865-12.932c-4.25-9.794-4.958-19.851-0.338-29.749c6.118-13.111,19.558-17.248,31.427-13.549
		c6.701,2.087,11.034,6.997,13.889,13.248c2.29,5.014,3.073,10.353,3.163,15.824c0.015,0.879-0.316,1.058-1.129,1.054
		C86.521,102.158,79.925,102.175,73.329,102.181z M68.428,94.66c4.449-0.002,8.897-0.007,13.345-0.01
		c2.912-0.004,2.912-0.004,2.287-2.922c-1.694-7.923-8.586-13.284-16.498-12.831c-8.11,0.464-14.23,6.424-15.064,14.609
		c-0.102,0.999,0.189,1.194,1.129,1.187C58.561,94.643,63.493,94.664,68.428,94.66z"/>
	<path fill-rule="evenodd" clip-rule="evenodd" fill="#FBFBFB" stroke="#FFFFFF" stroke-width="3" stroke-miterlimit="10" d="
		M97.922,70.857c4.103-0.003,7.934,0.001,11.767-0.017c0.682-0.003,0.851,0.543,1.131,0.953c4.175,6.064,8.339,12.136,12.505,18.207
		c0.85,1.237,0.85,1.237,1.686,0.062c4.34-6.098,8.686-12.19,13.006-18.303c0.458-0.65,0.913-0.976,1.763-0.959
		c3.357,0.054,6.715,0.017,10.086,0.014c0.134,0.577-0.324,0.83-0.567,1.156c-6.163,8.275-12.328,16.549-18.526,24.797
		c-0.504,0.667-0.515,1.078-0.022,1.761c7.057,9.773,14.083,19.572,21.115,29.366c0.227,0.318,0.428,0.651,0.756,1.15
		c-2.924,0.001-5.681-0.212-8.384,0.065c-2.845,0.293-4.461-0.728-5.99-3.145c-4.28-6.766-8.896-13.318-13.346-19.977
		c-0.556-0.832-0.807-0.938-1.416-0.024c-4.929,7.41-9.912,14.78-14.852,22.185c-0.451,0.672-0.914,0.968-1.754,0.955
		c-3.397-0.052-6.796-0.019-10.208-0.016c-0.098-0.559,0.329-0.827,0.569-1.164c6.725-9.468,13.448-18.932,20.207-28.374
		c0.571-0.795,0.657-1.313,0.024-2.167c-6.276-8.442-12.493-16.928-18.725-25.401C98.532,71.693,98.321,71.403,97.922,70.857z"/>
	<path fill-rule="evenodd" clip-rule="evenodd" fill="#3A3A3A" stroke="#FFFFFF" stroke-width="3" stroke-miterlimit="10" d="
		M68.428,94.66c-4.935,0.004-9.867-0.017-14.801,0.034c-0.94,0.007-1.231-0.188-1.129-1.187c0.833-8.185,6.954-14.145,15.064-14.609
		c7.912-0.453,14.804,4.908,16.498,12.831c0.625,2.918,0.625,2.918-2.287,2.922C77.325,94.652,72.877,94.657,68.428,94.66z"/>
	<path fill-rule="evenodd" clip-rule="evenodd" fill="#3A3A3A" stroke="#FFFFFF" stroke-width="3" stroke-miterlimit="10" d="
		M92.335,25.056c28.719-0.131,46.628,7.603,61.35,22.6c14.209,14.47,21.313,32.019,21.314,52.263
		c0.002,21.238-7.841,39.303-23.069,54.093c-14.444,14.026-31.875,20.935-51.928,20.935c-20.617-0.004-38.366-7.305-52.963-21.958
		C32.469,138.364,25.032,120.665,25,100.044c-0.031-20.151,6.948-37.691,21.064-52.119C62.143,31.493,79.561,25.32,92.335,25.056z
		 M75.634,102.179c6.599-0.005,13.194-0.023,19.792,0c0.811,0.003,1.142-0.176,1.127-1.055c-0.09-5.471-0.873-10.809-3.164-15.824
		c-2.855-6.25-7.187-11.16-13.89-13.248c-11.869-3.696-25.309,0.44-31.427,13.551c-4.619,9.897-3.911,19.954,0.34,29.747
		c3.003,6.92,8.531,11.161,15.864,12.934c4.381,1.058,8.814,1.062,13.259,0.335c9.029-1.479,16.097-8.042,17.905-16.602
		c0.155-0.729,0.12-0.998-0.725-0.978c-2.427,0.053-4.857,0.039-7.285,0.012c-0.633-0.009-0.908,0.172-1.067,0.823
		c-0.646,2.668-2.218,4.706-4.408,6.333c-3.488,2.592-7.474,3.098-11.642,2.856c-6.792-0.395-12.277-4.374-14.44-10.458
		c-0.835-2.352-1.058-4.803-1.171-7.278c-0.042-0.916,0.226-1.16,1.143-1.154C62.441,102.208,69.039,102.184,75.634,102.179z
		 M100.229,70.855c0.398,0.545,0.611,0.836,0.822,1.127c6.233,8.472,12.452,16.957,18.727,25.4c0.633,0.854,0.546,1.371-0.024,2.167
		c-6.76,9.44-13.484,18.908-20.208,28.373c-0.24,0.338-0.667,0.607-0.569,1.165c3.412-0.004,6.811-0.035,10.208,0.016
		c0.841,0.014,1.304-0.282,1.751-0.956c4.942-7.402,9.926-14.773,14.854-22.183c0.609-0.915,0.86-0.808,1.416,0.022
		c4.45,6.658,9.067,13.213,13.345,19.978c1.53,2.418,3.146,3.438,5.993,3.146c2.703-0.278,5.459-0.063,8.383-0.066
		c-0.327-0.499-0.53-0.83-0.757-1.15c-7.03-9.792-14.055-19.591-21.114-29.365c-0.493-0.684-0.481-1.093,0.022-1.761
		c6.198-8.249,12.363-16.523,18.527-24.798c0.243-0.326,0.699-0.578,0.566-1.155c-3.371,0.002-6.731,0.039-10.087-0.016
		c-0.85-0.015-1.305,0.311-1.764,0.96c-4.317,6.112-8.664,12.205-13.004,18.304c-0.836,1.174-0.836,1.174-1.687-0.063
		c-4.167-6.071-8.33-12.143-12.503-18.208c-0.281-0.409-0.451-0.956-1.134-0.952C108.162,70.857,104.333,70.852,100.229,70.855z"/>
</g>
</svg>
