<?xml version="1.0" encoding="utf-8"?>
<!-- Generator: Adobe Illustrator 16.0.0, SVG Export Plug-In . SVG Version: 6.00 Build 0)  -->
<!DOCTYPE svg PUBLIC "-//W3C//DTD SVG 1.1//EN" "http://www.w3.org/Graphics/SVG/1.1/DTD/svg11.dtd">
<svg version="1.1" id="logo" xmlns="http://www.w3.org/2000/svg" xmlns:xlink="http://www.w3.org/1999/xlink" x="0px" y="0px"
	 width="200px" height="200px" viewBox="0 0 200 200" enable-background="new 0 0 200 200" xml:space="preserve">
<g>
	<path fill="#DA258E" d="M141.043,114.739c0.262-9.11,0.486-18.22,0.785-27.326c0.033-0.975-0.341-1.269-1.138-1.605
		c-5.07-2.158-7.721-7.019-6.682-12.387c0.212-1.082-0.217-1.431-0.961-1.883c-7.604-4.635-15.19-9.295-22.793-13.938
		c-0.343-0.206-0.633-0.603-1.455-0.407C119.432,76.83,130,96.339,140.566,115.847C141.225,115.521,141.034,115.084,141.043,114.739
		z"/>
	<path fill="#DA258E" d="M58.931,113.332c0.201-0.325,0.398-0.651,0.598-0.972c11.063-18.07,22.134-36.138,33.184-54.215
		c0.26-0.424,0.792-0.779,0.59-1.405c-0.445-0.198-0.733,0.104-1.052,0.275c-7.959,4.335-15.912,8.687-23.889,12.986
		c-0.804,0.436-0.98,0.855-0.858,1.766c0.749,5.635-2.346,10.505-7.76,12.196c-0.946,0.293-1.101,0.729-1.124,1.599
		c-0.208,8.789-0.464,17.579-0.705,26.368c-0.01,0.379-0.002,0.759-0.019,1.139c-0.012,0.305,0.093,0.548,0.388,0.63
		C58.594,113.785,58.783,113.569,58.931,113.332z"/>
	<path fill="#DA258E" d="M130.424,123.686c1.71,0.048,2.69-0.326,3.177-2.045c0.227-0.793,0.845-1.525,1.434-2.146
		c0.741-0.777,0.844-1.384,0.292-2.391c-10.145-18.638-20.259-37.296-30.323-55.978c-0.589-1.094-1.164-1.445-2.351-1.163
		c-1.115,0.27-2.298,0.192-3.389-0.135c-1.068-0.322-1.523,0.101-2.043,0.957c-5.533,9.099-11.107,18.172-16.671,27.253
		c-5.475,8.944-10.927,17.898-16.457,26.809c-0.722,1.164-0.991,1.984,0.069,3.067c0.755,0.77,1.277,1.798,1.486,2.865
		c0.213,1.083,0.761,1.283,1.785,1.309C88.431,122.581,109.43,123.096,130.424,123.686z"/>
	<path fill="#DA258E" d="M105.93,142.737c0.747,0.666,1.228,0.546,1.965,0.142c7.992-4.377,15.999-8.729,23.997-13.096
		c0.296-0.16,0.784-0.208,0.591-0.864c-22.156-0.547-44.337-1.092-66.779-1.644c0.447,0.867,0.992,1.026,1.426,1.292
		c7.452,4.574,14.918,9.118,22.347,13.726c0.963,0.597,1.57,0.647,2.535-0.088C96.271,138.959,101.958,139.185,105.93,142.737z"/>
	<path fill="#DA258E" d="M173.357,115.533c8.581-40.516-17.308-80.313-57.825-88.893c-40.515-8.579-80.312,17.31-88.891,57.825
		c-8.579,40.515,17.309,80.313,57.824,88.893C124.981,181.938,164.779,156.049,173.357,115.533z M87.788,149.242
		c0.222-1.389-0.122-1.991-1.246-2.671c-7.444-4.49-14.85-9.043-22.247-13.611c-0.834-0.518-1.357-0.612-2.25,0.058
		c-3.887,2.921-8.135,3.343-12.351,0.894c-4.013-2.328-5.926-6.024-5.414-10.68c0.527-4.775,3.243-7.958,7.828-9.413
		c0.976-0.313,1.2-0.725,1.221-1.678c0.214-8.847,0.461-17.689,0.755-26.532c0.033-1.03-0.239-1.482-1.242-1.863
		c-4.442-1.689-6.935-4.998-7.21-9.725c-0.271-4.66,1.799-8.261,5.938-10.394c4.137-2.128,8.235-1.717,11.895,1.218
		c1.098,0.878,1.822,0.965,3.065,0.272c7.627-4.264,15.311-8.427,22.994-12.587c0.825-0.444,1.113-0.832,0.978-1.855
		c-0.637-4.769,1.095-8.585,5.197-11.084c3.997-2.435,8.14-2.261,11.961,0.404c3.895,2.707,5.349,6.598,4.504,11.247
		c-0.187,1.012,0.071,1.431,0.875,1.919c7.616,4.626,15.217,9.276,22.793,13.967c0.843,0.524,1.329,0.438,2.102-0.153
		c3.71-2.818,7.776-3.32,11.923-1.162c4.193,2.184,6.296,5.82,5.936,10.554c-0.356,4.699-2.893,7.994-7.364,9.606
		c-1.049,0.38-1.379,0.804-1.404,1.914c-0.19,8.628-0.427,17.254-0.738,25.878c-0.055,1.469,0.227,2.216,1.717,2.87
		c5.896,2.587,8.168,9.613,5.103,15.228c-3.034,5.553-10.08,7.425-15.467,4.104c-0.185-0.114-0.428-0.185-0.545-0.349
		c-1.419-1.943-2.863-1.197-4.537-0.261c-7.302,4.071-14.649,8.049-22.003,12.026c-0.859,0.463-1.21,0.875-1.055,1.974
		c0.643,4.627-1.021,8.357-4.942,10.893c-3.875,2.511-7.973,2.491-11.827,0.035C88.748,157.747,87.04,153.928,87.788,149.242z"/>
	<path fill="#FFFFFF" d="M104.557,160.25c3.921-2.535,5.584-6.266,4.942-10.893c-0.155-1.099,0.196-1.511,1.055-1.974
		c7.354-3.978,14.701-7.955,22.003-12.026c1.674-0.937,3.118-1.683,4.537,0.261c0.118,0.164,0.361,0.234,0.545,0.349
		c5.387,3.32,12.434,1.448,15.467-4.104c3.066-5.614,0.793-12.641-5.103-15.228c-1.49-0.654-1.772-1.401-1.717-2.87
		c0.311-8.624,0.548-17.25,0.738-25.878c0.025-1.11,0.355-1.534,1.404-1.914c4.472-1.612,7.008-4.907,7.364-9.606
		c0.36-4.733-1.743-8.37-5.936-10.554c-4.146-2.158-8.212-1.656-11.923,1.162c-0.773,0.591-1.259,0.678-2.102,0.153
		c-7.576-4.69-15.177-9.341-22.793-13.967c-0.803-0.488-1.061-0.907-0.875-1.919c0.845-4.649-0.61-8.54-4.504-11.247
		c-3.821-2.665-7.964-2.839-11.961-0.404c-4.102,2.499-5.833,6.315-5.197,11.084c0.136,1.023-0.152,1.411-0.978,1.855
		c-7.683,4.16-15.366,8.323-22.994,12.587c-1.243,0.692-1.968,0.605-3.065-0.272c-3.659-2.935-7.758-3.346-11.895-1.218
		c-4.139,2.133-6.208,5.733-5.938,10.394c0.275,4.727,2.768,8.035,7.21,9.725c1.002,0.381,1.275,0.833,1.242,1.863
		c-0.293,8.843-0.541,17.686-0.755,26.532c-0.021,0.953-0.245,1.365-1.221,1.678c-4.585,1.455-7.301,4.638-7.828,9.413
		c-0.513,4.655,1.401,8.352,5.414,10.68c4.216,2.449,8.464,2.027,12.351-0.894c0.892-0.67,1.416-0.575,2.25-0.058
		c7.396,4.568,14.803,9.121,22.247,13.611c1.124,0.68,1.468,1.282,1.246,2.671c-0.748,4.686,0.96,8.505,4.942,11.043
		C96.584,162.741,100.681,162.761,104.557,160.25z M110.253,57.6c7.603,4.644,15.19,9.304,22.793,13.938
		c0.745,0.452,1.174,0.801,0.961,1.883c-1.039,5.368,1.612,10.229,6.682,12.387c0.796,0.337,1.171,0.631,1.138,1.605
		c-0.298,9.106-0.523,18.216-0.785,27.326c-0.009,0.345,0.182,0.782-0.477,1.107C130,96.339,119.432,76.83,108.798,57.192
		C109.62,56.997,109.91,57.394,110.253,57.6z M57.896,113.069c0.017-0.38,0.008-0.76,0.019-1.139
		c0.241-8.789,0.498-17.579,0.705-26.368c0.022-0.87,0.178-1.306,1.124-1.599c5.414-1.691,8.509-6.562,7.76-12.196
		c-0.122-0.91,0.055-1.33,0.858-1.766c7.977-4.3,15.929-8.651,23.889-12.986c0.318-0.171,0.606-0.474,1.052-0.275
		c0.202,0.626-0.33,0.981-0.59,1.405C81.663,76.223,70.592,94.29,59.528,112.36c-0.199,0.32-0.396,0.646-0.598,0.972
		c-0.148,0.237-0.336,0.453-0.646,0.367C57.989,113.617,57.884,113.374,57.896,113.069z M65.648,120.78
		c-0.208-1.067-0.73-2.096-1.486-2.865c-1.06-1.083-0.791-1.903-0.069-3.067c5.53-8.91,10.982-17.864,16.457-26.809
		c5.564-9.081,11.138-18.154,16.671-27.253c0.52-0.856,0.975-1.279,2.043-0.957c1.09,0.327,2.273,0.404,3.389,0.135
		c1.187-0.282,1.762,0.069,2.351,1.163c10.064,18.682,20.178,37.34,30.323,55.978c0.552,1.007,0.449,1.613-0.292,2.391
		c-0.589,0.62-1.207,1.353-1.434,2.146c-0.486,1.719-1.466,2.093-3.177,2.045c-20.994-0.59-41.993-1.104-62.992-1.597
		C66.409,122.063,65.861,121.863,65.648,120.78z M89.477,142.293c-7.429-4.607-14.895-9.151-22.347-13.726
		c-0.435-0.266-0.979-0.425-1.426-1.292c22.442,0.552,44.624,1.097,66.779,1.644c0.192,0.656-0.295,0.704-0.591,0.864
		c-7.998,4.367-16.005,8.719-23.997,13.096c-0.737,0.404-1.219,0.524-1.965-0.142c-3.972-3.553-9.658-3.778-13.918-0.532
		C91.047,142.94,90.44,142.89,89.477,142.293z"/>
</g>
</svg>
