<?xml version="1.0" encoding="utf-8"?>
<!-- Generator: Adobe Illustrator 16.0.0, SVG Export Plug-In . SVG Version: 6.00 Build 0)  -->
<!DOCTYPE svg PUBLIC "-//W3C//DTD SVG 1.1//EN" "http://www.w3.org/Graphics/SVG/1.1/DTD/svg11.dtd">
<svg version="1.1" id="logo" xmlns="http://www.w3.org/2000/svg" xmlns:xlink="http://www.w3.org/1999/xlink" x="0px" y="0px"
	 width="200px" height="200px" viewBox="0 0 200 200" enable-background="new 0 0 200 200" xml:space="preserve">
<g>
	<path fill-rule="evenodd" clip-rule="evenodd" fill="#EF4624" d="M100.227,35.104c17.654-0.012,35.308,0.044,52.961-0.103
		c3.146-0.026,4.323,0.525,3.997,4.052c-3.388,36.575-6.649,73.165-9.802,109.761c-0.234,2.706-1.124,3.784-3.68,4.467
		c-13.629,3.648-27.219,7.449-40.795,11.291c-1.973,0.56-3.738,0.578-5.722,0.018c-13.45-3.804-26.918-7.555-40.419-11.178
		c-2.575-0.693-3.751-1.619-4.01-4.601c-3.178-36.598-6.519-73.178-9.94-109.75c-0.291-3.153,0.521-4.003,3.662-3.982
		C64.396,35.201,82.311,35.118,100.227,35.104z M100.146,58.997c0.001,0.027,0.001,0.054,0.002,0.079
		c-10.987,0.007-21.97,0.014-32.953,0.025c-1.668,0.003-3.437-0.433-3.146,2.452c1.263,12.614,2.447,25.239,3.473,37.876
		c0.211,2.589,1.178,3.184,3.598,3.165c11.77-0.087,23.538-0.037,35.307,0.049c3.506,0.025,8.128-1.502,10.23,0.586
		c2.377,2.358,0.147,6.897-0.067,10.479c-0.446,7.404-0.479,7.505-7.71,9.296c-3.621,0.896-7.088,2.974-11.029,1.982
		c-3.799-0.951-7.555-2.081-11.355-3.031c-1.715-0.429-2.683-1.144-2.831-3.111c-0.227-2.96,0.852-7.097-1.366-8.552
		c-2.223-1.462-6.042-0.498-9.163-0.587c-0.653-0.018-1.312,0.06-1.959-0.01c-2.138-0.229-2.71,0.749-2.498,2.768
		c0.593,5.59,1.185,11.187,1.497,16.795c0.134,2.369,0.926,3.372,3.262,3.96c7.218,1.823,14.354,3.952,21.532,5.931
		c2.173,0.6,4.102,1.84,6.674,1.066c8.508-2.552,17.081-4.884,25.667-7.16c1.881-0.495,2.452-1.438,2.6-3.254
		c1.019-12.508,1.981-25.028,3.311-37.506c0.39-3.648-0.621-4.331-4.045-4.28c-14.904,0.218-29.815,0.075-44.722,0.243
		c-2.672,0.031-3.76-0.74-3.814-3.398c-0.055-2.608-0.134-5.269-0.687-7.802c-0.7-3.205,0.549-3.728,3.423-3.698
		c13.858,0.139,27.72,0.108,41.582,0.095c3.117-0.004,6.961,0.895,9.158-0.58c2.416-1.619,0.944-5.837,1.507-8.875
		c0.118-0.642,0.11-1.312,0.266-1.942c0.601-2.434-0.328-3.159-2.786-3.132C122.116,59.043,111.13,58.989,100.146,58.997z"/>
	<path fill-rule="evenodd" clip-rule="evenodd" fill="#ECE9E8" d="M100.146,58.997c10.984-0.008,21.971,0.046,32.954-0.071
		c2.458-0.027,3.387,0.698,2.786,3.132c-0.155,0.631-0.147,1.301-0.266,1.942c-0.563,3.038,0.909,7.256-1.507,8.875
		c-2.197,1.475-6.041,0.576-9.158,0.58c-13.862,0.014-27.724,0.044-41.582-0.095c-2.874-0.029-4.123,0.493-3.423,3.698
		c0.553,2.533,0.632,5.193,0.687,7.802c0.055,2.658,1.143,3.43,3.814,3.398c14.906-0.168,29.817-0.025,44.722-0.243
		c3.424-0.051,4.435,0.632,4.045,4.28c-1.329,12.478-2.292,24.998-3.311,37.506c-0.147,1.816-0.719,2.759-2.6,3.254
		c-8.586,2.276-17.159,4.608-25.667,7.16c-2.572,0.773-4.501-0.467-6.674-1.066c-7.178-1.979-14.314-4.107-21.532-5.931
		c-2.336-0.588-3.128-1.591-3.262-3.96c-0.313-5.608-0.904-11.205-1.497-16.795c-0.212-2.019,0.36-2.996,2.498-2.768
		c0.647,0.069,1.306-0.008,1.959,0.01c3.121,0.089,6.94-0.875,9.163,0.587c2.218,1.455,1.14,5.592,1.366,8.552
		c0.148,1.968,1.116,2.683,2.831,3.111c3.801,0.95,7.557,2.08,11.355,3.031c3.941,0.991,7.408-1.087,11.029-1.982
		c7.231-1.791,7.264-1.892,7.71-9.296c0.215-3.582,2.444-8.121,0.067-10.479c-2.103-2.088-6.725-0.561-10.23-0.586
		c-11.769-0.086-23.537-0.136-35.307-0.049c-2.42,0.019-3.387-0.576-3.598-3.165c-1.025-12.637-2.21-25.262-3.473-37.876
		c-0.29-2.885,1.479-2.449,3.146-2.452c10.983-0.012,21.966-0.019,32.953-0.025C100.146,59.051,100.146,59.024,100.146,58.997z"/>
</g>
</svg>
