<?xml version="1.0" encoding="utf-8"?>
<!-- Generator: Adobe Illustrator 16.0.0, SVG Export Plug-In . SVG Version: 6.00 Build 0)  -->
<!DOCTYPE svg PUBLIC "-//W3C//DTD SVG 1.1//EN" "http://www.w3.org/Graphics/SVG/1.1/DTD/svg11.dtd">
<svg version="1.1" id="logo" xmlns="http://www.w3.org/2000/svg" xmlns:xlink="http://www.w3.org/1999/xlink" x="0px" y="0px"
	 width="200px" height="200px" viewBox="0 0 200 200" enable-background="new 0 0 200 200" xml:space="preserve">
<g>
	<path fill-rule="evenodd" clip-rule="evenodd" fill="#CB3A37" d="M33.485,118.403c-0.003-14.518-0.002-29.037-0.023-43.557
		c0-0.533,0.059-0.699,0.662-0.699c43.918,0.012,87.836,0,131.754-0.027c0.604,0,0.662,0.164,0.662,0.697
		c-0.014,14.52-0.008,29.039-0.004,43.559c-0.385,0.02-0.773,0.059-1.158,0.059c-21.307,0.008-42.613,0.012-63.918,0.016
		c-0.221,0.002-0.447,0.025-0.664-0.004c-0.605-0.076-0.813,0.137-0.801,0.777c0.041,2.219,0.016,4.434,0.018,6.65
		c-9.867,0.002-19.734,0.004-29.604,0.006c0.012-2.104,0.023-4.209,0.031-6.314c0.004-1.105,0-1.107-1.131-1.105
		c-11.582,0.002-23.166,0.004-34.75,0.004C34.201,118.462,33.843,118.425,33.485,118.403z M136.945,81.521
		c-7.121,0.002-14.244,0.012-21.365-0.008c-0.588,0-0.805,0.105-0.803,0.762c0.027,9.367,0.027,18.732,0.008,28.1
		c0,0.596,0.17,0.725,0.738,0.721c4.381-0.025,8.758-0.033,13.137,0.002c0.754,0.006,0.953-0.186,0.949-0.947
		c-0.033-6.816-0.014-13.635-0.037-20.451c-0.002-0.613,0.137-0.795,0.77-0.779c1.91,0.045,3.824,0.061,5.736-0.008
		c0.771-0.027,0.887,0.229,0.883,0.924c-0.023,6.787,0.002,13.578-0.031,20.367c-0.006,0.764,0.217,0.91,0.924,0.891
		c1.883-0.049,3.77-0.063,5.65,0.004c0.781,0.029,0.891-0.242,0.889-0.934c-0.027-6.762-0.008-13.521-0.037-20.283
		c0-0.715,0.119-1,0.924-0.971c1.855,0.07,3.715,0.059,5.57,0.002c0.727-0.021,0.906,0.164,0.904,0.9
		c-0.031,6.844-0.01,13.689-0.027,20.533c-0.002,0.568,0.119,0.756,0.721,0.744c1.965-0.041,3.936-0.047,5.902,0.002
		c0.67,0.016,0.816-0.197,0.814-0.834c-0.021-9.285-0.027-18.568-0.002-27.852c0.004-0.76-0.225-0.908-0.936-0.904
		C151.135,81.528,144.039,81.521,136.945,81.521z M77.848,99.991c0,5.902,0.008,11.803-0.008,17.705
		c-0.002,0.572,0.076,0.826,0.75,0.82c4.434-0.031,8.867-0.027,13.299-0.006c0.58,0.002,0.762-0.162,0.752-0.748
		c-0.035-1.939,0.016-3.881-0.031-5.82c-0.016-0.684,0.162-0.877,0.863-0.871c4.35,0.031,8.699,0,13.049,0.029
		c0.658,0.002,0.893-0.109,0.891-0.84c-0.029-9.309-0.029-18.619-0.01-27.928c0.002-0.674-0.201-0.82-0.838-0.82
		c-9.281,0.023-18.563,0.031-27.846,0.002c-0.777-0.004-0.895,0.246-0.893,0.938C77.855,88.3,77.846,94.146,77.848,99.991z
		 M55.684,81.54c-4.682,0-9.365,0.014-14.047-0.012c-0.622-0.002-0.792,0.17-0.791,0.793c0.022,9.336,0.024,18.672,0.005,28.01
		c-0.001,0.619,0.153,0.787,0.781,0.783c4.376-0.031,8.755-0.039,13.131,0c0.75,0.008,0.9-0.199,0.895-0.912
		c-0.029-6.814-0.01-13.631-0.037-20.445c-0.002-0.662,0.182-0.836,0.83-0.82c1.91,0.043,3.824,0.057,5.732-0.008
		c0.768-0.025,0.896,0.219,0.893,0.924c-0.023,6.814-0.002,13.629-0.027,20.445c-0.002,0.662,0.182,0.824,0.822,0.811
		c1.939-0.043,3.881-0.035,5.818-0.004c0.555,0.01,0.752-0.1,0.752-0.711c-0.023-9.363-0.025-18.729-0.008-28.092
		c0.004-0.633-0.172-0.783-0.787-0.779C64.992,81.55,60.338,81.538,55.684,81.54z"/>
	<path fill-rule="evenodd" clip-rule="evenodd" fill="#FDFCFC" d="M136.945,81.521c7.094,0,14.189,0.008,21.281-0.02
		c0.711-0.004,0.939,0.145,0.936,0.904c-0.025,9.283-0.02,18.566,0.002,27.852c0.002,0.637-0.145,0.85-0.814,0.834
		c-1.967-0.049-3.938-0.043-5.902-0.002c-0.602,0.012-0.723-0.176-0.721-0.744c0.018-6.844-0.004-13.689,0.027-20.533
		c0.002-0.736-0.178-0.922-0.904-0.9c-1.855,0.057-3.715,0.068-5.57-0.002c-0.805-0.029-0.924,0.256-0.924,0.971
		c0.029,6.762,0.01,13.521,0.037,20.283c0.002,0.691-0.107,0.963-0.889,0.934c-1.881-0.066-3.768-0.053-5.65-0.004
		c-0.707,0.02-0.93-0.127-0.924-0.891c0.033-6.789,0.008-13.58,0.031-20.367c0.004-0.695-0.111-0.951-0.883-0.924
		c-1.912,0.068-3.826,0.053-5.736,0.008c-0.633-0.016-0.771,0.166-0.77,0.779c0.023,6.816,0.004,13.635,0.037,20.451
		c0.004,0.762-0.195,0.953-0.949,0.947c-4.379-0.035-8.756-0.027-13.137-0.002c-0.568,0.004-0.738-0.125-0.738-0.721
		c0.02-9.367,0.02-18.732-0.008-28.1c-0.002-0.656,0.215-0.762,0.803-0.762C122.701,81.532,129.824,81.522,136.945,81.521z"/>
	<path fill-rule="evenodd" clip-rule="evenodd" fill="#FDFCFC" d="M77.848,99.991c-0.002-5.846,0.008-11.691-0.021-17.539
		c-0.002-0.691,0.115-0.941,0.893-0.938c9.283,0.029,18.564,0.021,27.846-0.002c0.637,0,0.84,0.146,0.838,0.82
		c-0.02,9.309-0.02,18.619,0.01,27.928c0.002,0.73-0.232,0.842-0.891,0.84c-4.35-0.029-8.699,0.002-13.049-0.029
		c-0.701-0.006-0.879,0.188-0.863,0.871c0.047,1.939-0.004,3.881,0.031,5.82c0.01,0.586-0.172,0.75-0.752,0.748
		c-4.432-0.021-8.865-0.025-13.299,0.006c-0.674,0.006-0.752-0.248-0.75-0.82C77.855,111.794,77.848,105.894,77.848,99.991z
		 M92.621,96.321c0.002,2.215,0.016,4.432-0.008,6.646c-0.006,0.543,0.098,0.783,0.719,0.771c1.994-0.041,3.988-0.031,5.98-0.004
		c0.521,0.006,0.709-0.113,0.707-0.68c-0.025-4.486-0.02-8.971-0.008-13.459c0.002-0.471-0.063-0.68-0.617-0.67
		c-2.047,0.037-4.096,0.035-6.146,0.006c-0.531-0.01-0.643,0.168-0.637,0.66C92.635,91.837,92.621,94.079,92.621,96.321z"/>
	<path fill-rule="evenodd" clip-rule="evenodd" fill="#FDFCFC" d="M55.684,81.54c4.654-0.002,9.309,0.01,13.963-0.018
		c0.615-0.004,0.791,0.146,0.787,0.779c-0.018,9.363-0.016,18.729,0.008,28.092c0,0.611-0.197,0.721-0.752,0.711
		c-1.938-0.031-3.879-0.039-5.818,0.004c-0.641,0.014-0.824-0.148-0.822-0.811c0.025-6.816,0.004-13.631,0.027-20.445
		c0.004-0.705-0.125-0.949-0.893-0.924c-1.908,0.064-3.822,0.051-5.732,0.008c-0.648-0.016-0.832,0.158-0.83,0.82
		c0.027,6.814,0.008,13.631,0.037,20.445c0.006,0.713-0.145,0.92-0.895,0.912c-4.375-0.039-8.754-0.031-13.131,0
		c-0.628,0.004-0.783-0.164-0.781-0.783c0.019-9.338,0.017-18.674-0.005-28.01c-0.001-0.623,0.168-0.795,0.791-0.793
		C46.319,81.554,51.001,81.54,55.684,81.54z"/>
	<path fill-rule="evenodd" clip-rule="evenodd" fill="#CB3A37" d="M92.621,96.321c0-2.242,0.014-4.484-0.01-6.729
		c-0.006-0.492,0.105-0.67,0.637-0.66c2.051,0.029,4.1,0.031,6.146-0.006c0.555-0.01,0.619,0.199,0.617,0.67
		c-0.012,4.488-0.018,8.973,0.008,13.459c0.002,0.566-0.186,0.686-0.707,0.68c-1.992-0.027-3.986-0.037-5.98,0.004
		c-0.621,0.012-0.725-0.229-0.719-0.771C92.637,100.753,92.623,98.536,92.621,96.321z"/>
</g>
</svg>
