<?xml version="1.0" encoding="utf-8"?>
<!-- Generator: Adobe Illustrator 16.0.0, SVG Export Plug-In . SVG Version: 6.00 Build 0)  -->
<!DOCTYPE svg PUBLIC "-//W3C//DTD SVG 1.1//EN" "http://www.w3.org/Graphics/SVG/1.1/DTD/svg11.dtd">
<svg version="1.1" id="logo" xmlns="http://www.w3.org/2000/svg" xmlns:xlink="http://www.w3.org/1999/xlink" x="0px" y="0px"
	 width="200px" height="200px" viewBox="0 0 200 200" enable-background="new 0 0 200 200" xml:space="preserve">
<g>
	<path fill-rule="evenodd" clip-rule="evenodd" fill="#4FC2E2" d="M145.603,57.113c0.116,5.05-0.582,10.023-1.621,14.939
		c-0.431,2.047,0.118,2.972,2.139,3.611c6.645,2.102,12.999,4.89,18.702,8.969c13.581,9.709,13.566,20.973-0.026,30.65
		c-5.498,3.914-11.563,6.729-17.959,8.747c-2.578,0.812-3.066,1.973-2.527,4.457c1.787,8.241,2.455,16.578,0.646,24.904
		c-2.406,11.075-9.703,15.357-20.603,12.232c-8.107-2.321-14.866-7.032-21.04-12.543c-2.358-2.106-3.659-2.328-6.178-0.063
		c-6.928,6.225-14.489,11.534-23.916,13.476c-7.497,1.542-13.499-1.496-16.479-8.66c-2.967-7.134-2.677-14.602-1.972-22.072
		c0.241-2.557,0.622-5.118,1.212-7.614c0.519-2.188-0.05-3.128-2.265-3.835c-6.261-1.994-12.256-4.644-17.735-8.354
		c-14.638-9.914-14.646-21.756-0.011-31.728c4.924-3.354,10.215-6.045,15.906-7.707c3.551-1.036,4.449-2.498,3.623-6.228
		c-1.675-7.573-2.112-15.32-0.555-23.013c2.405-11.872,10.083-16.327,21.605-12.667c8.026,2.547,14.712,7.348,20.875,12.858
		c2.032,1.816,3.021,1.615,4.944-0.084c7.083-6.25,14.643-11.788,24.167-13.836c7.727-1.662,13.733,1.475,16.776,8.799
		C145.281,47.084,145.734,52.055,145.603,57.113z M99.818,124.439c17.334-0.594,12.838,2.414,21.29-12.457
		c8.456-14.876,8.498-9.229,0.014-23.907c-8.668-14.997-4.148-12.309-21.329-12.303c-16.709,0.004-12.533-2.391-20.717,12
		c-8.646,15.208-8.659,9.576,0.002,24.566C87.506,126.93,83.161,123.866,99.818,124.439z M138.812,55.905
		c-0.085-1.834-0.014-5.169-0.911-8.451c-1.831-6.692-5.083-8.715-11.679-6.84c-7.881,2.24-14.1,7.232-20.143,12.482
		c-0.981,0.852-1.069,1.557-0.163,2.548c6.642,7.263,11.572,17.05,23.892,15.813c1.336-0.133,2.793,0.432,4.124,0.878
		c2.234,0.748,3.27,0.066,3.631-2.282C138.209,65.855,138.841,61.666,138.812,55.905z M31.875,99.908
		c-0.114,2.533,1.213,4.431,2.85,6.111c6.017,6.182,13.767,9.282,21.678,12.091c1.902,0.676,2.122-0.716,2.56-1.915
		c1.722-4.698,3.414-9.409,5.197-14.084c0.479-1.251,0.721-2.385,0.128-3.667c-2.213-4.787-3.985-9.743-5.561-14.773
		c-0.359-1.148-0.754-2.212-2.381-1.632c-8.037,2.851-15.903,6.003-21.903,12.424C33.025,95.982,31.875,97.69,31.875,99.908z
		 M168.137,99.448c0.098-1.645-0.999-3.383-2.411-4.924c-6.046-6.591-14.051-9.754-22.223-12.62
		c-1.593-0.559-2.051,0.456-2.406,1.635c-1.522,5.049-3.332,9.99-5.459,14.814c-0.432,0.98-0.507,1.934-0.049,2.955
		c2.213,4.927,4.078,9.987,5.684,15.143c0.375,1.207,0.838,2.106,2.426,1.534c7.774-2.807,15.401-5.871,21.356-11.917
		C166.697,104.401,168.087,102.549,168.137,99.448z M61.161,142.812c0.012,3.475,0.076,6.943,1.047,10.325
		c1.717,5.985,4.999,7.948,10.996,6.4c8.098-2.091,14.377-7.21,20.58-12.468c1.437-1.22,0.886-1.984-0.079-3.109
		c-3.346-3.902-6.639-7.854-9.851-11.87c-0.87-1.084-1.809-1.755-3.161-1.914c-5.104-0.606-10.193-1.318-15.177-2.598
		c-2.031-0.522-2.695,0.368-3.018,2.206C61.737,134.099,61.133,138.42,61.161,142.812z M60.899,57.717
		c0.078,4.256,0.728,8.44,1.413,12.626c0.346,2.118,1.311,2.736,3.397,2.17c4.463-1.21,9.031-1.89,13.625-2.44
		c1.459-0.174,3.053-0.192,4.101-1.707c3.073-4.445,6.575-8.554,10.25-12.51c0.786-0.848,1.288-1.583,0.162-2.551
		c-6.563-5.63-13.293-11.033-22.013-12.903c-5.072-1.087-8.035,0.852-9.656,5.879C60.978,50,60.916,53.862,60.899,57.717z
		 M139.146,140.721c-0.376-2.863-0.921-6.803-1.4-10.749c-0.266-2.197-1.154-3.117-3.531-2.459
		c-4.706,1.296-9.543,1.955-14.387,2.523c-1.299,0.152-2.482,0.466-3.312,1.654c-3.1,4.428-6.577,8.552-10.26,12.499
		c-0.841,0.902-1.094,1.62-0.021,2.542c6.556,5.637,13.279,11.005,22.024,12.856c4.765,1.01,7.642-0.624,9.32-5.212
		C139.063,150.326,139.101,146.069,139.146,140.721z M68.986,91.337c2.746-4.813,5.251-9.201,7.85-13.755
		c-12.546,0.7-13.225,1.753-8.529,12.712C68.401,90.513,68.568,90.701,68.986,91.337z M122.73,77.132
		c1.807,3.026,3.025,5.281,4.45,7.396c1.386,2.056,1.974,4.653,4.179,6.486c1.099-3.17,2.071-6.094,3.129-8.985
		c0.607-1.659,0.32-2.725-1.572-3.059C129.77,78.416,126.629,77.838,122.73,77.132z M123.021,122.568
		c15.06-2.444,13.119-0.051,8.371-13.35c-0.021-0.059-0.203-0.059-0.605-0.161C128.31,113.366,125.791,117.751,123.021,122.568z
		 M108.25,68.679c-2.719-3.13-4.865-5.637-7.058-8.101c-0.56-0.628-1.192-1.556-2.167-0.494c-2.437,2.658-5,5.221-7.01,8.615
		C97.468,68.693,102.404,68.687,108.25,68.679z M69.061,109.047c-5.657,10.429-5.438,10.989,4.801,13.266
		c0.686,0.151,1.376,1.04,2.016,0.155c0.47-0.651,0.25-1.459-0.166-2.16C73.517,116.601,71.329,112.89,69.061,109.047z
		 M91.668,131.289c2.799,3.205,5.06,5.774,7.292,8.365c0.731,0.85,1.411,1.019,2.197,0.094c2.271-2.667,4.894-5.069,6.752-8.479
		C102.518,131.274,97.632,131.281,91.668,131.289z"/>
	<path fill-rule="evenodd" clip-rule="evenodd" fill="#4FC2E2" d="M113.913,99.952c0.031,7.685-6.215,13.986-13.893,14.017
		c-7.681,0.032-13.962-6.218-13.984-13.912c-0.021-7.687,6.216-13.999,13.878-14.045C107.533,85.966,113.883,92.29,113.913,99.952z"
		/>
</g>
</svg>
