<?xml version="1.0" encoding="utf-8"?>
<!-- Generator: Adobe Illustrator 16.0.0, SVG Export Plug-In . SVG Version: 6.00 Build 0)  -->
<!DOCTYPE svg PUBLIC "-//W3C//DTD SVG 1.1//EN" "http://www.w3.org/Graphics/SVG/1.1/DTD/svg11.dtd">
<svg version="1.1" id="logo" xmlns="http://www.w3.org/2000/svg" xmlns:xlink="http://www.w3.org/1999/xlink" x="0px" y="0px"
	 width="200px" height="200px" viewBox="0 0 200 200" enable-background="new 0 0 200 200" xml:space="preserve">
<g>
	<path fill="#1A1A1A" d="M144.23,121.813c-2.91-2.142-6.188-3.599-9.459-5.07c-1.68-0.755-3.372-1.486-5.02-2.306
		c-2.245-1.119-3.903-2.751-3.767-5.467c0.094-1.859,0.998-3.338,2.814-4.057c2.598-1.029,5.537-1.026,7.109,1.142
		c2.549,3.514,4.617,2.324,7.079,0.318c0.632-0.515,1.33-0.996,2.073-1.312c2.52-1.071,2.038-2.376,0.629-4.144
		c-4.794-6.006-11.189-7.346-18.243-6.049c-9.832,1.808-14.809,10.233-11.933,19.797c1.604,5.336,5.718,8.32,10.455,10.617
		c3.499,1.695,7.084,3.222,10.513,5.043c2.031,1.078,3.157,2.991,2.76,5.392c-0.392,2.378-2.048,3.712-4.275,4.343
		c-4.154,1.178-7.823,0.251-11.234-2.393c-1.397-1.084-1.722-3.771-3.81-3.415c-1.704,0.291-3.217,1.714-4.815,2.633
		c-0.443,0.255-0.865,0.574-1.338,0.749c-2.589,0.95-2.107,2.34-0.777,4.115c4.768,6.367,11.336,8.773,16.924,8.864
		c14.524-0.034,21.613-6.926,20.618-18.018C150.123,128.015,147.882,124.502,144.23,121.813z"/>
	<path fill="#1A1A1A" d="M105.458,96.839c0.007-1.323-0.511-1.819-1.815-1.787c-2.252,0.058-4.52,0.158-6.758-0.031
		c-2.264-0.194-3.03,0.482-2.962,2.857c0.17,5.938,0.049,11.882,0.046,17.823c-0.014,0-0.026,0.002-0.04,0.001
		c-0.004,6.248,0.028,12.497-0.032,18.746c-0.022,2.471-0.638,4.738-3.358,5.618c-2.771,0.893-5.259,0.402-7.307-1.77
		c-3.078-3.269-3.074-3.271-6.934-0.935c-0.963,0.583-1.88,1.276-2.904,1.719c-1.907,0.821-1.635,1.862-0.688,3.313
		c2.786,4.269,6.663,6.794,11.631,7.824c11.431,2.373,20.249-3.372,20.821-14.667C105.811,122.676,105.384,109.745,105.458,96.839z"
		/>
	<path fill="#F8DE03" d="M156.937,40.08C94.482,40.158,59.205,40.045,43.106,40c-2.461-0.007-3.03,0.691-3.026,3.072
		c0.048,37.944,0.026,75.887-0.08,113.83c-0.007,2.464,0.695,3.03,3.072,3.02c18.972-0.084,37.942-0.028,56.915-0.018
		c18.972,0.014,37.943-0.023,56.914,0.096c2.461,0.016,3.021-0.693,3.019-3.068c-0.049-37.942-0.026-75.887,0.08-113.83
		C160.006,40.646,159.317,40.075,156.937,40.08z M105.158,135.551c-0.572,11.295-9.391,17.04-20.821,14.667
		c-4.968-1.03-8.845-3.556-11.631-7.824c-0.947-1.45-1.22-2.491,0.688-3.313c1.024-0.442,1.941-1.136,2.904-1.719
		c3.859-2.336,3.855-2.334,6.934,0.935c2.048,2.172,4.536,2.662,7.307,1.77c2.721-0.88,3.336-3.147,3.358-5.618
		c0.061-6.249,0.028-12.498,0.032-18.746c0.014,0.001,0.026-0.001,0.04-0.001c0.003-5.941,0.124-11.886-0.046-17.823
		c-0.068-2.375,0.698-3.052,2.962-2.857c2.238,0.189,4.506,0.089,6.758,0.031c1.305-0.032,1.822,0.464,1.815,1.787
		C105.384,109.745,105.811,122.676,105.158,135.551z M129.916,150.615c-5.588-0.091-12.156-2.497-16.924-8.864
		c-1.33-1.775-1.812-3.165,0.777-4.115c0.473-0.175,0.895-0.494,1.338-0.749c1.599-0.919,3.111-2.342,4.815-2.633
		c2.088-0.355,2.412,2.331,3.81,3.415c3.411,2.644,7.08,3.57,11.234,2.393c2.228-0.631,3.884-1.965,4.275-4.343
		c0.397-2.4-0.729-4.313-2.76-5.392c-3.429-1.821-7.014-3.348-10.513-5.043c-4.737-2.297-8.852-5.281-10.455-10.617
		c-2.876-9.563,2.101-17.989,11.933-19.797c7.054-1.297,13.449,0.043,18.243,6.049c1.409,1.768,1.891,3.072-0.629,4.144
		c-0.743,0.315-1.441,0.797-2.073,1.312c-2.462,2.006-4.53,3.195-7.079-0.318c-1.572-2.168-4.512-2.171-7.109-1.142
		c-1.816,0.719-2.721,2.197-2.814,4.057c-0.137,2.716,1.521,4.348,3.767,5.467c1.647,0.819,3.34,1.551,5.02,2.306
		c3.271,1.472,6.549,2.929,9.459,5.07c3.651,2.688,5.893,6.201,6.304,10.784C151.529,143.689,144.44,150.581,129.916,150.615z"/>
</g>
</svg>
