<?xml version="1.0" encoding="utf-8"?>
<!-- Generator: Adobe Illustrator 16.0.0, SVG Export Plug-In . SVG Version: 6.00 Build 0)  -->
<!DOCTYPE svg PUBLIC "-//W3C//DTD SVG 1.1//EN" "http://www.w3.org/Graphics/SVG/1.1/DTD/svg11.dtd">
<svg version="1.1" id="logo" xmlns="http://www.w3.org/2000/svg" xmlns:xlink="http://www.w3.org/1999/xlink" x="0px" y="0px"
	 width="200px" height="200px" viewBox="0 0 200 200" enable-background="new 0 0 200 200" xml:space="preserve">
<g>
	<g>
		<path fill="#734D9D" d="M174.999,99.829c-0.092-41.42-33.744-74.922-75.164-74.83c-41.424,0.094-74.926,33.746-74.834,75.166
			c0.092,41.426,33.746,74.928,75.17,74.836C141.591,174.909,175.091,141.255,174.999,99.829z M104.403,73.202
			c17.256-0.32,32.361,4.844,44.316,17.725c6.83,7.361,10.346,16.057,9.424,26.18c-1.219,13.41-11.643,22.979-25.98,24.125
			c-6.691,0.539-13.123-0.654-19.369-3.016c-0.574-0.217-1.67-0.344-1.123-1.191c0.811-1.264,2.088-2.219,2.984-3.439
			c1.184-1.611,2.424-1.133,3.998-0.674c4.145,1.209,8.408,1.672,12.744,1.422c16.254-0.926,25.18-16.838,17.535-31.32
			c-4.221-7.99-10.691-13.578-18.568-17.396c-8.162-4.197-16.67-5.951-25.627-5.754c-1.465,0.031-2.385,0.428-3.191,1.807
			c-2.471,4.201-7.463,5.193-11.385,2.455c-3.641-2.545-4.328-7.727-1.52-11.461c2.664-3.543,7.977-4.088,11.426-0.896
			C101.431,73.028,102.741,73.237,104.403,73.202z M71.87,57.993c4.475-11.207,15.709-21.66,30.813-18.174
			c11.131,2.566,18.391,9.688,22.742,19.988c1.33,3.154,2.414,6.422,2.684,9.92c-5.033,0.281-7.537-1.67-8.916-6.621
			c-1.979-7.094-6.396-12.756-13.611-15.695c-8.711-3.551-18.455-0.607-23.908,7.061c-7.477,10.516-7.998,22.205-6.047,34.32
			c1.047,6.496,3.355,12.545,7.021,18.057c0.787,1.186,1.453,1.85,3.139,1.705c4.869-0.41,8.635,3.133,8.662,7.805
			c0.029,4.523-3.795,8.236-8.285,8.045c-4.695-0.201-7.922-4.004-7.48-8.971c0.119-1.322-0.16-2.33-0.914-3.43
			C66.146,95.067,64.331,76.876,71.87,57.993z M61.144,142.901c-9.137-3.523-14.357-10.291-15.576-19.912
			c-1.807-14.275,4.412-25.111,15.432-34.338c0.561,2.627,0.949,4.773,1.494,6.883c0.352,1.35-0.576,1.871-1.313,2.598
			c-4.564,4.496-8.24,9.518-9.48,16c-2.244,11.742,5.422,22.463,17.271,23.928c12.311,1.525,22.674-3.059,31.988-10.611
			c5.938-4.818,10.563-10.711,13.998-17.555c0.695-1.387,0.775-2.457,0.039-3.955c-2.148-4.381-0.199-9.221,4.143-10.91
			c4.258-1.656,9.014,0.549,10.451,4.844c1.486,4.438-0.912,9.016-5.66,10.217c-1.615,0.41-2.107,1.389-2.725,2.559
			c-6.252,11.887-14.791,21.559-27.08,27.443C83.521,145.167,72.573,147.315,61.144,142.901z"/>
	</g>
	<path fill="#FFFFFF" d="M78.683,115.433c-0.441,4.967,2.785,8.77,7.48,8.971c4.49,0.191,8.314-3.521,8.285-8.045
		c-0.027-4.672-3.793-8.215-8.662-7.805c-1.686,0.145-2.352-0.52-3.139-1.705c-3.666-5.512-5.975-11.561-7.021-18.057
		c-1.951-12.115-1.43-23.805,6.047-34.32c5.453-7.668,15.197-10.611,23.908-7.061c7.215,2.939,11.633,8.602,13.611,15.695
		c1.379,4.951,3.883,6.902,8.916,6.621c-0.27-3.498-1.354-6.766-2.684-9.92c-4.352-10.301-11.611-17.422-22.742-19.988
		c-15.104-3.486-26.338,6.967-30.813,18.174c-7.539,18.883-5.725,37.074,5.898,54.01C78.522,113.103,78.802,114.11,78.683,115.433z"
		/>
	<path fill="#FFFFFF" d="M88.642,72.663c-2.809,3.734-2.121,8.916,1.52,11.461c3.922,2.738,8.914,1.746,11.385-2.455
		c0.807-1.379,1.727-1.775,3.191-1.807c8.957-0.197,17.465,1.557,25.627,5.754c7.877,3.818,14.348,9.406,18.568,17.396
		c7.645,14.482-1.281,30.395-17.535,31.32c-4.336,0.25-8.6-0.213-12.744-1.422c-1.574-0.459-2.814-0.938-3.998,0.674
		c-0.896,1.221-2.174,2.176-2.984,3.439c-0.547,0.848,0.549,0.975,1.123,1.191c6.246,2.361,12.678,3.555,19.369,3.016
		c14.338-1.146,24.762-10.715,25.98-24.125c0.922-10.123-2.594-18.818-9.424-26.18c-11.955-12.881-27.061-18.045-44.316-17.725
		c-1.662,0.035-2.973-0.174-4.336-1.436C96.618,68.575,91.306,69.12,88.642,72.663z"/>
	<path fill="#FFFFFF" d="M121.206,112.647c0.617-1.17,1.109-2.148,2.725-2.559c4.748-1.201,7.146-5.779,5.66-10.217
		c-1.438-4.295-6.193-6.5-10.451-4.844c-4.342,1.689-6.291,6.529-4.143,10.91c0.736,1.498,0.656,2.568-0.039,3.955
		c-3.436,6.844-8.061,12.736-13.998,17.555c-9.314,7.553-19.678,12.137-31.988,10.611c-11.85-1.465-19.516-12.186-17.271-23.928
		c1.24-6.482,4.916-11.504,9.48-16c0.736-0.727,1.664-1.248,1.313-2.598c-0.545-2.109-0.934-4.256-1.494-6.883
		c-11.02,9.227-17.238,20.063-15.432,34.338c1.219,9.621,6.439,16.389,15.576,19.912c11.43,4.414,22.377,2.266,32.982-2.811
		C106.415,134.206,114.954,124.534,121.206,112.647z"/>
</g>
</svg>
