<?xml version="1.0" encoding="utf-8"?>
<!-- Generator: Adobe Illustrator 16.0.0, SVG Export Plug-In . SVG Version: 6.00 Build 0)  -->
<!DOCTYPE svg PUBLIC "-//W3C//DTD SVG 1.1//EN" "http://www.w3.org/Graphics/SVG/1.1/DTD/svg11.dtd">
<svg version="1.1" id="logo" xmlns="http://www.w3.org/2000/svg" xmlns:xlink="http://www.w3.org/1999/xlink" x="0px" y="0px"
	 width="200px" height="200px" viewBox="0 0 200 200" enable-background="new 0 0 200 200" xml:space="preserve">
<g>
	<path fill-rule="evenodd" clip-rule="evenodd" d="M100.347,25.135c44.444,0.245,75.828,37.363,74.62,77.051
		c-1.155,38.254-32.309,73.069-75.681,72.679c-41.376-0.373-74.725-34.168-74.281-75.219
		C25.457,57.968,58.925,24.869,100.347,25.135z M95.822,163.907c39.759,2.996,67.565-30.531,68.438-61.361
		c1.065-37.565-27.781-65.121-62.271-66.763C68.212,34.18,37.937,61.021,35.995,96.692
		C33.817,136.692,67.256,163.359,95.822,163.907z"/>
	<path fill-rule="evenodd" clip-rule="evenodd" fill="#FFFFFF" d="M95.822,163.907c-28.565-0.548-62.005-27.215-59.827-67.215
		c1.942-35.672,32.217-62.513,65.993-60.909c34.49,1.642,63.336,29.197,62.271,66.763
		C163.387,133.376,135.581,166.903,95.822,163.907z M117.373,104.677c-0.151-0.299-0.304-0.596-0.456-0.894
		c-6.339-0.04-12.684-0.196-19.018-0.018c-1.266,0.037-2.909,1.065-3.671,2.138c-3.671,5.158-7.089,10.49-10.608,15.755
		c-4.563,6.827-9.132,13.65-13.698,20.475c0.205,0.194,0.41,0.385,0.61,0.581C86.146,130.034,101.762,117.357,117.373,104.677z
		 M82.74,95.237c0.113,0.327,0.229,0.654,0.346,0.979c5.941,0.036,11.886-0.022,17.827,0.154c2.407,0.071,3.924-0.542,5.326-2.711
		c6.354-9.822,12.946-19.49,19.453-29.217c1.383-2.072,2.754-4.149,4.132-6.223c-0.241-0.223-0.481-0.438-0.721-0.657
		C113.646,70.12,98.191,82.682,82.74,95.237z"/>
	<path fill-rule="evenodd" clip-rule="evenodd" d="M117.373,104.677c-15.611,12.681-31.227,25.357-46.841,38.037
		c-0.2-0.196-0.405-0.387-0.61-0.581c4.566-6.824,9.135-13.647,13.698-20.475c3.519-5.265,6.938-10.597,10.608-15.755
		c0.762-1.072,2.405-2.101,3.671-2.138c6.334-0.179,12.679-0.022,19.018,0.018C117.069,104.081,117.222,104.378,117.373,104.677z"/>
	<path fill-rule="evenodd" clip-rule="evenodd" d="M82.74,95.237c15.451-12.556,30.906-25.117,46.362-37.675
		c0.24,0.22,0.48,0.435,0.721,0.657c-1.378,2.073-2.749,4.15-4.132,6.223c-6.506,9.727-13.099,19.395-19.453,29.217
		c-1.401,2.169-2.918,2.782-5.326,2.711c-5.94-0.177-11.885-0.118-17.827-0.154C82.968,95.892,82.853,95.564,82.74,95.237z"/>
</g>
</svg>
