<?xml version="1.0" encoding="utf-8"?>
<!-- Generator: Adobe Illustrator 16.0.0, SVG Export Plug-In . SVG Version: 6.00 Build 0)  -->
<!DOCTYPE svg PUBLIC "-//W3C//DTD SVG 1.1//EN" "http://www.w3.org/Graphics/SVG/1.1/DTD/svg11.dtd">
<svg version="1.1" id="logo" xmlns="http://www.w3.org/2000/svg" xmlns:xlink="http://www.w3.org/1999/xlink" x="0px" y="0px"
	 width="200px" height="200px" viewBox="0 0 200 200" enable-background="new 0 0 200 200" xml:space="preserve">
<g>
	<path fill-rule="evenodd" clip-rule="evenodd" fill="#EDEFF1" d="M97.895,128.489c-6.388,4.795-12.779,5.507-19.529,3.787
		c-1.267-0.32-2.501-0.881-3.661-1.498c-1.575-0.837-2.71-2.076-2.524-4.039c0.176-1.813,1.44-2.764,2.99-3.292
		c1.705-0.583,3.456-1.084,5.224-1.434c3.358-0.666,6.172-2.037,7.84-5.504c-2.222-0.695-4.471-1.302-6.64-2.113
		c-1.506-0.562-1.968,0.636-2.616,1.354c-3.166,3.501-6.266,7.056-9.359,10.617c-5.67,6.521-11.434,6.446-16.987-0.23
		c-2.26-2.721-4.047-5.75-5.459-8.956c-7.026-15.916-11.365-32.578-13.47-49.833c-0.487-3.992-0.197-8.012,0.493-11.936
		c2.553-14.396,11.849-22.23,26.706-22.636c7.705-0.209,15.139,1.385,22.44,3.676c1.414,0.444,2.59,0.839,4.089-0.068
		c5.703-3.445,12.084-4.63,18.516-3.614c5.914,0.932,11.419-0.306,17.125-1.128c12.657-1.825,24.519,0.013,34.875,8.394
		c6.477,5.24,8.728,11.769,7.843,19.866c-1.995,18.279-8.812,34.779-18.146,50.396c-2.061,3.45-1.981,3.685,2.037,4.223
		c3.17,0.423,6.261-0.313,9.375-0.71c0.837-0.106,1.657-0.383,2.496-0.442c1.816-0.13,3.752-0.342,4.682,1.778
		c0.895,2.044-0.351,3.525-1.634,4.806c-2.785,2.771-6.098,4.723-9.862,5.897c-4.211,1.313-8.566,1.987-12.889,1.33
		c-3.263-0.496-3.714,0.888-4.017,3.55c-0.833,7.325-1.695,14.658-2.974,21.914c-2.019,11.438-13.634,18.704-24.827,15.667
		c-6.317-1.711-9.379-6.555-10.776-12.519c-1.109-4.721-1.205-9.599-1.343-14.433C97.798,137.383,97.893,133.396,97.895,128.489z
		 M75.479,68.496c3.253-1.051,6.343-2.463,9.708-2.936c6.479-0.904,11.63,1.834,13.092,7.61c2.599,10.291,3.167,20.555-1.651,30.512
		c-1.103,2.279-1.884,4.715-2.809,7.081c-0.385,0.986-0.526,1.572,0.907,2.072c6.13,2.159,7.387,4.194,7.33,10.711
		c-0.086,9.803-0.349,19.612,0.849,29.378c0.911,7.417,5.277,11.886,11.428,11.737c10.186-0.246,15.421-4.805,16.886-14.854
		c1.416-9.698,2.826-19.398,3.461-29.19c0.202-3.096,1.274-5.698,4.212-7.111c1.496-0.715,1.192-1.395,0.429-2.478
		c-4.483-6.351-7.746-13.383-11.147-20.329c-1.923-3.925-3.297-8.058-3.825-12.432c-0.872-7.218,2.58-11.97,9.768-13.185
		c2.238-0.381,4.548-0.331,6.833-0.479c-3.383-14.985-20.547-27.424-37.633-27.975C84.451,36.021,75.43,53.258,75.479,68.496z
		 M62.726,36.954C49.108,36.91,41.098,42.742,38.564,54.68c-0.908,4.272-1.315,8.638-0.722,12.981
		c2.133,15.627,5.912,30.835,12.018,45.415c1.637,3.912,3.541,7.699,6.386,10.903c3.625,4.086,6.294,4.088,9.898,0.042
		c3.135-3.519,6.159-7.143,9.381-10.58c1.306-1.392,1.161-2.173-0.083-3.525c-4.427-4.817-6.059-10.585-5.345-17.073
		c0.581-5.29,0.767-10.581,0.517-15.923c-0.589-12.636,1.647-24.579,9.823-34.755c1.362-1.698,0.725-2.114-0.938-2.571
		C74.003,38.081,68.448,36.982,62.726,36.954z M144.128,105.665c2.291-1.415,2.3-1.409,2.999-2.662
		c4.188-7.521,7.646-15.366,10.258-23.565c2.499-7.85,4.507-15.818,4.37-24.153c-0.042-2.558-0.382-5.065-1.903-7.251
		c-7.142-10.273-25.917-16.076-37.804-11.673c0.329,0.913,1.245,1.059,1.94,1.46c9.576,5.518,16.239,13.564,20.647,23.603
		c1.397,3.18,1.888,6.421,1.459,9.896c-0.53,4.31-1.446,8.592-1.153,12.981C145.408,91.302,147.231,98.322,144.128,105.665z
		 M95.956,87.36c-0.027-4.324-0.529-8.272-1.488-12.149c-1.018-4.105-3.022-5.619-7.244-5.53c-3.714,0.079-7.033,1.492-10.311,3.093
		c-1.779,0.871-2.376,2.089-2.184,4.042c0.57,5.794,0.104,11.559-0.567,17.33c-0.799,6.844,3.257,13.901,9.314,16.607
		c4.502,2.008,5.245,1.67,6.947-2.939c0.837-2.261,1.741-4.504,2.729-6.701C95.171,96.628,96.139,91.95,95.956,87.36z
		 M140.052,104.417c1.307-2.729,1.668-4.871,1.598-7.04c-0.293-8.783-1.925-17.579,0.267-26.345
		c0.221-0.894-0.013-1.787-1.137-1.875c-3.509-0.273-7.146-0.646-10.114,1.708c-2.725,2.165-2.518,5.318-1.911,8.369
		C130.555,88.276,135.535,95.872,140.052,104.417z M77.551,127.514c7.317,2.921,14.355,1.48,18.792-3.566
		c1.852-2.111,2.058-4.117-0.032-6.005c-2.417-2.183-3.81,0.037-4.885,1.64c-2.621,3.904-6.333,5.795-10.788,6.629
		C79.618,126.4,78.417,126.245,77.551,127.514z M158.692,118.817c-5.528-0.115-10.949,0.146-16.222-1.982
		c-1.62-0.655-3.206,1.233-3.545,3.323c-0.214,1.313-0.229,2.504,1.43,2.754C146.943,123.901,153.109,122.913,158.692,118.817z"/>
	<path fill-rule="evenodd" clip-rule="evenodd" fill="#216A97" d="M75.479,68.496c-0.049-15.238,8.972-32.475,27.839-31.867
		c17.086,0.551,34.25,12.989,37.633,27.975c-2.286,0.148-4.596,0.099-6.833,0.479c-7.188,1.215-10.64,5.967-9.768,13.185
		c0.528,4.374,1.902,8.507,3.825,12.432c3.401,6.946,6.664,13.979,11.147,20.329c0.764,1.083,1.067,1.763-0.429,2.478
		c-2.938,1.413-4.011,4.016-4.212,7.111c-0.635,9.792-2.045,19.492-3.461,29.19c-1.465,10.05-6.701,14.608-16.886,14.854
		c-6.151,0.148-10.517-4.32-11.428-11.737c-1.197-9.766-0.935-19.575-0.849-29.378c0.057-6.517-1.2-8.552-7.33-10.711
		c-1.433-0.5-1.292-1.086-0.907-2.072c0.925-2.366,1.706-4.802,2.809-7.081c4.818-9.957,4.25-20.221,1.651-30.512
		c-1.461-5.776-6.612-8.515-13.092-7.61C81.821,66.033,78.732,67.445,75.479,68.496z"/>
	<path fill-rule="evenodd" clip-rule="evenodd" fill="#216A97" d="M62.726,36.954c5.723,0.028,11.277,1.127,16.773,2.64
		c1.663,0.457,2.3,0.873,0.938,2.571C72.26,52.341,70.024,64.284,70.613,76.92c0.25,5.342,0.064,10.633-0.517,15.923
		c-0.714,6.488,0.918,12.256,5.345,17.073c1.244,1.353,1.39,2.134,0.083,3.525c-3.223,3.438-6.246,7.062-9.381,10.58
		c-3.604,4.046-6.273,4.044-9.898-0.042c-2.845-3.204-4.749-6.991-6.386-10.903c-6.105-14.58-9.885-29.788-12.018-45.415
		c-0.593-4.344-0.186-8.709,0.722-12.981C41.098,42.742,49.108,36.91,62.726,36.954z"/>
	<path fill-rule="evenodd" clip-rule="evenodd" fill="#216A97" d="M144.128,105.665c3.103-7.343,1.279-14.363,0.813-21.365
		c-0.293-4.39,0.623-8.672,1.153-12.981c0.428-3.475-0.062-6.716-1.459-9.896c-4.409-10.038-11.072-18.085-20.647-23.603
		c-0.695-0.401-1.611-0.547-1.94-1.46c11.887-4.403,30.663,1.399,37.804,11.673c1.521,2.186,1.861,4.693,1.903,7.251
		c0.138,8.335-1.871,16.304-4.37,24.153c-2.611,8.199-6.07,16.044-10.258,23.565C146.429,104.256,146.419,104.25,144.128,105.665z"
		/>
	<path fill-rule="evenodd" clip-rule="evenodd" fill="#216A97" d="M95.956,87.36c0.183,4.59-0.785,9.268-2.804,13.752
		c-0.988,2.197-1.892,4.44-2.729,6.701c-1.702,4.609-2.445,4.947-6.947,2.939c-6.057-2.706-10.114-9.764-9.314-16.607
		c0.671-5.771,1.138-11.536,0.567-17.33c-0.192-1.953,0.405-3.171,2.184-4.042c3.278-1.601,6.597-3.014,10.311-3.093
		c4.222-0.089,6.226,1.425,7.244,5.53C95.427,79.088,95.929,83.036,95.956,87.36z M88.103,71.787
		c-1.164,0.218-2.988-0.032-2.8,1.869c0.203,2.055,1.917,3.093,3.885,3.093c1.616,0.001,3.524-0.747,3.325-2.571
		C92.272,71.928,89.98,72.044,88.103,71.787z"/>
	<path fill-rule="evenodd" clip-rule="evenodd" fill="#216A97" d="M140.052,104.417c-4.517-8.545-9.497-16.141-11.296-25.183
		c-0.607-3.051-0.814-6.204,1.911-8.369c2.968-2.354,6.605-1.981,10.114-1.708c1.124,0.088,1.357,0.981,1.137,1.875
		c-2.192,8.766-0.561,17.562-0.267,26.345C141.72,99.546,141.359,101.688,140.052,104.417z M135.13,70.749
		c-1.178,0.554-3.429,0.092-3.512,2.124c-0.07,1.64,1.641,2.199,3.19,2.127c1.733-0.08,3.236-1.033,3.313-2.711
		C138.196,70.753,136.493,70.897,135.13,70.749z"/>
	<path fill-rule="evenodd" clip-rule="evenodd" fill="#216A97" d="M77.551,127.514c0.866-1.269,2.067-1.113,3.087-1.303
		c4.455-0.834,8.167-2.725,10.788-6.629c1.076-1.603,2.468-3.822,4.885-1.64c2.09,1.888,1.884,3.894,0.032,6.005
		C91.906,128.994,84.868,130.435,77.551,127.514z"/>
	<path fill-rule="evenodd" clip-rule="evenodd" fill="#216A97" d="M158.692,118.817c-5.583,4.096-11.749,5.084-18.337,4.095
		c-1.66-0.25-1.644-1.44-1.43-2.754c0.339-2.09,1.925-3.979,3.545-3.323C147.743,118.963,153.164,118.702,158.692,118.817z"/>
	<path fill-rule="evenodd" clip-rule="evenodd" fill="#EDEFF1" d="M88.103,71.787c1.877,0.257,4.17,0.141,4.411,2.391
		c0.199,1.824-1.709,2.572-3.325,2.571c-1.968,0-3.683-1.038-3.885-3.093C85.115,71.755,86.938,72.005,88.103,71.787z"/>
	<path fill-rule="evenodd" clip-rule="evenodd" fill="#EDEFF1" d="M135.13,70.749c1.363,0.148,3.066,0.004,2.991,1.54
		c-0.077,1.678-1.58,2.631-3.313,2.711c-1.55,0.072-3.26-0.487-3.19-2.127C131.701,70.841,133.952,71.303,135.13,70.749z"/>
</g>
</svg>
