<?xml version="1.0" encoding="utf-8"?>
<!-- Generator: Adobe Illustrator 16.0.0, SVG Export Plug-In . SVG Version: 6.00 Build 0)  -->
<!DOCTYPE svg PUBLIC "-//W3C//DTD SVG 1.1//EN" "http://www.w3.org/Graphics/SVG/1.1/DTD/svg11.dtd">
<svg version="1.1" id="logo" xmlns="http://www.w3.org/2000/svg" xmlns:xlink="http://www.w3.org/1999/xlink" x="0px" y="0px"
	 width="200px" height="200px" viewBox="0 0 200 200" enable-background="new 0 0 200 200" xml:space="preserve">
<g>
	<path fill-rule="evenodd" clip-rule="evenodd" fill="#FECA43" d="M145.886,129.259c0.019,0.186,0.035,0.371,0.054,0.559
		c-0.413,1.552,0.507,2.967,0.482,4.486c-0.005,0.294-0.082,0.794,0.418,0.946c0.02,0.195,0.038,0.392,0.059,0.587
		c-0.429,1.05,0.085,2.025,0.26,3.025c0.106,0.62,0.133,1.126-0.542,1.47c-1.992,1.007-3.856,2.289-5.832,3.258
		c-3.497,1.714-6.802,3.765-10.243,5.564c-3.159,1.652-6.294,3.4-9.361,5.245c-2.445,1.473-4.93,2.899-7.483,4.17
		c-2.94,1.464-5.731,3.188-8.604,4.765c-3.067,1.684-6.176,2.242-9.347,0.633c-3.423-1.737-6.733-3.702-10.084-5.583
		c-3.203-1.799-6.395-3.625-9.596-5.427c-1.64-0.924-3.35-1.75-4.928-2.744c-3.21-2.026-6.608-3.698-9.902-5.558
		c-2.524-1.425-4.993-2.956-7.573-4.287c-0.43-0.222-1.025-0.527-0.65-1.248c0.493-0.178,0.788-0.6,1.138-0.947
		c12.264-12.183,24.526-24.364,36.778-36.558c3.924-3.904,7.819-7.839,11.73-11.761c4.135-3.854,8.089-7.893,12.028-11.947
		c0.525-0.04,0.943-0.293,1.308-0.653c4.617-4.585,9.268-9.142,13.841-13.771c1.843-1.865,2.337-2.089,4.776-1.229
		c0.085,0.008,0.132,0.054,0.139,0.139c0.061,0.152,0.144,0.301,0.181,0.46c0.731,3.03,1.154,6.113,1.558,9.201
		c0.075,0.586,0.063,1.215,0.566,1.662c0.032,0.196,0.063,0.392,0.095,0.586c-0.271,0.275-0.212,0.629-0.161,0.939
		c0.441,2.789,0.88,5.578,1.379,8.355c0.145,0.807,0.021,1.711,0.666,2.385c0.021,0.274,0.043,0.549,0.065,0.823
		c-0.28,0.331-0.172,0.704-0.106,1.069c0.357,1.944,0.713,3.886,0.972,5.851c0.199,1.507,0.125,3.124,0.98,4.505
		c0.035,0.194,0.069,0.389,0.104,0.582c-0.226,1.777,0.192,3.513,0.493,5.229c0.463,2.639,0.835,5.294,1.331,7.923
		c0.301,1.59,0.184,3.278,0.982,4.768c0.04,0.194,0.078,0.391,0.119,0.586c-0.49,0.826-0.025,1.657,0.144,2.407
		c0.228,1.007-0.163,2.195,0.757,3.022c0.147,0.272,0.145,0.556,0.06,0.843c-0.598,1.465,0.35,2.761,0.503,4.145
		C145.491,128.214,145.18,128.929,145.886,129.259z"/>
	<path fill-rule="evenodd" clip-rule="evenodd" fill="#F8A31C" d="M56.137,116.463c0.014-0.168,0.025-0.337,0.038-0.504
		c0.372-0.08,0.368-0.371,0.417-0.669c0.726-4.48,1.536-8.95,2.161-13.443c0.224-1.604,0.934-3.186,0.48-4.863
		c0.012-0.168,0.022-0.337,0.034-0.504c0.372-0.084,0.362-0.385,0.409-0.678c1.098-6.817,2.21-13.63,3.305-20.446
		c0.609-3.797,1.171-7.601,1.795-11.395c0.543-3.303,1.203-6.589,1.535-9.923c0.051-0.504,0.533-1.007,0.046-1.529
		c0.016-0.166,0.031-0.334,0.045-0.501c0.832-0.527,0.62-1.535,0.704-2.205c0.539-4.29,1.408-8.522,2.02-12.797
		c0.16-1.123,1.298-2.177,2.357-2.232c1.118-0.058,2.824,1.013,3.055,1.981c0.338,1.432,1.112,2.578,2.177,3.557
		c0.038,0.093,0.076,0.185,0.114,0.277c0.039,0.807,0.254,1.521,1.021,1.947v0.001c-0.263,0.852,0.737,1.244,0.729,2.003
		c-0.454,0.646-0.284,0.981,0.504,1.008c0.369,0.272,0.241,0.969,0.87,1.021c0.123,0.247,0.246,0.497,0.371,0.745
		c0.188,0.992,0.567,1.877,1.396,2.513c0.03,0.081,0.062,0.163,0.091,0.243c0.009,0.244,0.017,0.489,0.023,0.733
		c-0.215,0.11-0.502,0.242-0.396,0.516c0.154,0.395,0.571,0.167,0.863,0.246c0.748,1.29,1.469,2.592,2.003,3.989
		c0.077,0.089,0.154,0.177,0.231,0.265c0.103,0.222,0.203,0.443,0.305,0.664c0.765,1.636,1.827,3.121,2.446,4.83
		c0.078,0.088,0.153,0.175,0.23,0.262c0.248,0.42,0.495,0.839,0.743,1.259c0.012,0.272-0.029,0.563,0.254,0.741
		c0.877,1.071,1.235,2.433,1.998,3.567c-0.742,2.602-2.432,4.74-3.527,7.182c-1.509,3.37-3.36,6.59-5.137,9.832
		c-2.358,4.303-4.693,8.614-6.912,12.991c-1.742,3.437-3.592,6.818-5.404,10.217c-2.055,3.852-4.186,7.666-6.148,11.564
		c-0.71,1.408-1.768,2.684-2.219,4.13c-0.568,1.832-1.712,3.307-2.465,5.009c-0.842,1.907-2.003,3.681-2.925,5.574
		c-0.776,1.59-1.823,3.047-2.751,4.562c-0.005-0.123-0.028-0.253-0.009-0.372c0.656-4.034,1.358-8.058,1.945-12.101
		c0.143-0.983,0.695-1.989,0.157-3.022c0.019-0.165,0.037-0.33,0.056-0.494c0.938-0.996,0.633-2.321,0.839-3.488
		C56.138,118.016,56.687,117.238,56.137,116.463z"/>
	<path fill-rule="evenodd" clip-rule="evenodd" fill="#F8A31C" d="M114.688,77.907c-3.939,4.055-7.894,8.093-12.028,11.947
		c-0.091-1.131-1.063-1.792-1.472-2.747c-0.688-1.603-1.461-3.18-2.231-4.729c-1.233-2.489-2.7-4.86-3.872-7.402
		c-0.982-2.128-2.315-4.094-3.354-6.215c-0.264-0.536-0.527-1.001-0.489-1.6c0.26-0.416,0.549-0.817,0.777-1.251
		c0.847-1.597,1.676-3.203,2.51-4.809c0.504-0.038,0.504-0.394,0.484-0.763c0.418-1.041,0.827-2.088,1.527-2.987
		c0.032-0.022,0.096-0.052,0.094-0.065c-0.016-0.064-0.049-0.127-0.077-0.189c0.14-0.508,0.7-0.88,0.482-1.501
		c0.046-0.081,0.09-0.161,0.135-0.24c0.059-0.106,0.118-0.212,0.177-0.318c0.057-0.129,0.114-0.259,0.17-0.387
		c0.71-0.05,0.756-1.083,1.532-1.034c0.582-0.092,1.216,0.216,1.751-0.235c0.447,0.103,0.896,0.204,1.344,0.309l0.072,0.009
		c0,0,0.025,0.068,0.026,0.068c-0.019,0.579,0.376,1.037,0.65,1.427c0.792,1.119,0.952,2.62,2.131,3.488
		c0.079,0.153,0.158,0.306,0.236,0.458c-0.413,0.696,0.494,0.955,0.503,1.512c0.007,0.202,0.055,0.384,0.248,0.49
		c0.36,0.337,0.512,0.76,0.508,1.244c0.081,0.086,0.162,0.172,0.242,0.258c0.299,0.253,0.337,0.65,0.522,0.957
		c0.623,1.031,0.911,2.273,1.9,3.078l0.025,0.041c0.02,0.508-0.028,1.053,0.648,1.204c0.06,0.139,0.118,0.279,0.176,0.417
		c-0.011,0.267-0.022,0.536-0.033,0.803c0.075,0.088,0.151,0.177,0.228,0.265c0.007,0.079,0.012,0.159,0.019,0.238
		c0.079,0.087,0.157,0.172,0.235,0.26c0.103,0.22,0.3,0.274,0.517,0.293c0.077,0.153,0.155,0.309,0.234,0.462
		c-0.252,1.127,1.033,1.695,0.994,2.745c0.079,0.086,0.159,0.173,0.237,0.258c0.123,0.011,0.245,0.021,0.367,0.031
		c0.235,0.258,0.371,0.563,0.417,0.907c0.07,0.104,0.142,0.21,0.213,0.314c0.06,0.026,0.082,0.072,0.068,0.137
		c-0.102,0.323-0.031,0.559,0.325,0.652c0.06,0.023,0.085,0.067,0.079,0.13l0.01,0.011c0.106,0.24,0.214,0.48,0.32,0.722
		C114.15,77.095,114.55,77.46,114.688,77.907z"/>
	<path fill-rule="evenodd" clip-rule="evenodd" fill="#E9B54C" d="M55.118,122.707c0.538,1.033-0.015,2.039-0.157,3.022
		c-0.587,4.043-1.289,8.066-1.945,12.101c-0.02,0.119,0.004,0.249,0.009,0.372c-0.029,0.306-0.28,0.609-0.012,0.918
		c-0.375,0.721,0.221,1.026,0.65,1.248c2.58,1.331,5.049,2.862,7.573,4.287c3.294,1.859,6.692,3.531,9.902,5.558
		c1.578,0.994,3.288,1.82,4.928,2.744c3.201,1.802,6.393,3.628,9.596,5.427c3.351,1.881,6.661,3.846,10.084,5.583
		c3.171,1.609,6.279,1.051,9.347-0.633c2.872-1.577,5.663-3.301,8.604-4.765c2.554-1.271,5.038-2.697,7.483-4.17
		c3.067-1.845,6.202-3.593,9.361-5.245c3.441-1.8,6.746-3.851,10.243-5.564c1.976-0.969,3.84-2.251,5.832-3.258
		c0.675-0.344,0.648-0.85,0.542-1.47c-0.175-1-0.688-1.976-0.26-3.025c0.515,1.329,0.519,2.755,0.789,4.129
		c0.108,0.553-0.254,0.684-0.642,0.898c-3.38,1.874-6.744,3.778-10.115,5.668c-4.682,2.617-9.339,5.279-14.053,7.834
		c-6.142,3.326-12.246,6.715-18.336,10.136c-3.106,1.744-6.292,1.738-9.401-0.009c-7.354-4.132-14.685-8.315-22.035-12.459
		c-4.526-2.551-9.081-5.052-13.608-7.602c-2.21-1.242-4.383-2.547-6.578-3.813c-0.426-0.247-0.702-0.492-0.607-1.074
		c0.895-5.5,1.761-11.007,2.641-16.51C54.972,122.92,55.062,122.816,55.118,122.707z"/>
	<path fill-rule="evenodd" clip-rule="evenodd" fill="#E9B54C" d="M66.357,52.509c0.487,0.522,0.005,1.025-0.046,1.529
		c-0.332,3.334-0.992,6.62-1.535,9.923c-0.624,3.794-1.186,7.598-1.795,11.395c-1.095,6.816-2.207,13.629-3.305,20.446
		c-0.047,0.293-0.037,0.594-0.409,0.678c0.143-2.66,0.783-5.248,1.155-7.873c0.557-3.904,1.245-7.79,1.868-11.685
		C63.528,69.177,64.756,61.43,66,53.686C66.063,53.284,66.237,52.899,66.357,52.509z"/>
	<path fill-rule="evenodd" clip-rule="evenodd" fill="#E9B54C" d="M94.528,61.102c-0.834,1.605-1.663,3.212-2.51,4.809
		c-0.229,0.434-0.518,0.835-0.776,1.251c-0.076-0.016-0.151-0.022-0.229-0.021c-0.091-0.003-0.183-0.005-0.273-0.008
		c-0.075-0.002-0.151,0.001-0.227,0.009c-0.763-1.135-1.121-2.496-1.998-3.567c-0.008-0.272,0.043-0.566-0.254-0.741
		c-0.248-0.42-0.495-0.839-0.743-1.259c-0.076-0.087-0.152-0.174-0.23-0.262c-0.619-1.709-1.682-3.194-2.446-4.83
		c-0.102-0.221-0.202-0.442-0.305-0.664c-0.077-0.088-0.154-0.176-0.231-0.265c-0.534-1.397-1.255-2.699-2.002-3.99
		c0.009-0.354-0.149-0.605-0.469-0.761c-0.007-0.244-0.015-0.489-0.023-0.733c1.147,1.188,1.619,2.771,2.395,4.172
		c2.071,3.747,4.045,7.551,6.022,11.35c0.488,0.938,0.802,1.035,1.322,0.021c1.48-2.88,3.01-5.736,4.529-8.597
		c0.269-0.504,0.434-1.087,0.96-1.419c0.218,0.621-0.343,0.993-0.482,1.501c-0.007,0.085-0.013,0.171-0.017,0.255
		c-0.7,0.899-1.109,1.946-1.528,2.987C94.694,60.495,94.525,60.744,94.528,61.102z"/>
	<path fill-rule="evenodd" clip-rule="evenodd" fill="#E9B54C" d="M76.715,40.312c-1.064-0.979-1.839-2.125-2.177-3.557
		c-0.23-0.969-1.937-2.039-3.055-1.981c-1.06,0.056-2.197,1.109-2.357,2.232c-0.611,4.274-1.48,8.507-2.02,12.797
		c-0.084,0.67,0.128,1.678-0.704,2.205c0.128-2.531,0.729-4.997,1.072-7.5c0.354-2.587,0.856-5.153,1.28-7.731
		c0.221-1.353,1.088-2.207,2.313-2.486c1.213-0.275,2.482,0.016,3.179,1.178C75.174,37.022,76.126,38.578,76.715,40.312z"/>
	<path fill-rule="evenodd" clip-rule="evenodd" fill="#E9B54C" d="M114.688,77.907c-0.138-0.447-0.537-0.813-0.42-1.339
		c0.629,0.807,1.181,0.728,1.888,0.005c3.741-3.821,7.52-7.61,11.299-11.395c1.141-1.143,2.293-2.278,3.511-3.341
		c1.126-0.985,2.767-0.752,3.648,0.416c-2.44-0.859-2.935-0.636-4.777,1.229c-4.573,4.629-9.224,9.186-13.841,13.771
		C115.631,77.614,115.213,77.867,114.688,77.907z"/>
	<path fill-rule="evenodd" clip-rule="evenodd" fill="#E9B54C" d="M59.233,96.983c0.453,1.678-0.257,3.259-0.48,4.863
		c-0.625,4.493-1.436,8.963-2.161,13.443c-0.049,0.298-0.045,0.589-0.417,0.669c0.117-2.447,0.719-4.825,1.05-7.242
		c0.482-3.527,1.1-7.036,1.675-10.549C58.965,97.766,59.121,97.378,59.233,96.983z"/>
	<path fill-rule="evenodd" clip-rule="evenodd" fill="#E9B54C" d="M143.855,116.73c-0.799-1.489-0.682-3.178-0.982-4.768
		c-0.496-2.629-0.868-5.284-1.331-7.923c-0.301-1.716-0.719-3.451-0.493-5.229c0.755,2.541,0.878,5.192,1.369,7.781
		c0.578,3.041,1.004,6.11,1.493,9.168C143.965,116.086,144.026,116.416,143.855,116.73z"/>
	<path fill-rule="evenodd" clip-rule="evenodd" fill="#E9B54C" d="M139.034,85.981c-0.646-0.674-0.521-1.578-0.666-2.385
		c-0.499-2.777-0.938-5.566-1.379-8.355c-0.051-0.311-0.109-0.664,0.161-0.939C138.009,78.159,138.624,82.053,139.034,85.981z"/>
	<path fill-rule="evenodd" clip-rule="evenodd" fill="#E9B54C" d="M137.056,73.716c-0.503-0.447-0.491-1.076-0.566-1.662
		c-0.403-3.088-0.826-6.171-1.558-9.201c-0.037-0.159-0.12-0.308-0.181-0.46c0.637,0.018,0.69,0.604,0.754,0.97
		c0.576,3.327,1.094,6.662,1.621,9.995C137.145,73.471,137.081,73.597,137.056,73.716z"/>
	<path fill-rule="evenodd" clip-rule="evenodd" fill="#E9B54C" d="M140.945,98.229c-0.855-1.381-0.781-2.998-0.98-4.505
		c-0.259-1.965-0.614-3.906-0.972-5.851c-0.065-0.365-0.174-0.738,0.106-1.069c0.586,1.125,0.591,2.395,0.776,3.595
		c0.356,2.326,0.663,4.66,1.1,6.975C141.026,97.647,140.959,97.944,140.945,98.229z"/>
	<path fill-rule="evenodd" clip-rule="evenodd" fill="#E9B54C" d="M106.522,62.386c0.004-0.484-0.147-0.907-0.508-1.243
		c-0.014-0.152-0.026-0.305-0.039-0.456l0.071-0.068c1.29,1.894,2.345,3.909,3.141,6.061c-0.989-0.805-1.277-2.047-1.9-3.078
		c-0.186-0.307-0.224-0.704-0.522-0.957C106.685,62.558,106.604,62.472,106.522,62.386z"/>
	<path fill-rule="evenodd" clip-rule="evenodd" fill="#E9B54C" d="M145.886,129.259c-0.706-0.33-0.395-1.045-0.448-1.525
		c-0.153-1.384-1.101-2.68-0.503-4.145C145.606,125.42,145.68,127.351,145.886,129.259z"/>
	<path fill-rule="evenodd" clip-rule="evenodd" fill="#E9B54C" d="M105.027,58.682c-1.179-0.868-1.339-2.369-2.131-3.488
		c-0.274-0.39-0.669-0.848-0.65-1.427c0.494,0.025,0.73,0.434,0.873,0.775C103.711,55.944,104.646,57.187,105.027,58.682z"/>
	<path fill-rule="evenodd" clip-rule="evenodd" fill="#E9B54C" d="M144.875,122.746c-0.92-0.827-0.529-2.016-0.757-3.022
		c-0.169-0.75-0.634-1.581-0.144-2.407C144.498,119.089,144.744,120.909,144.875,122.746z"/>
	<path fill-rule="evenodd" clip-rule="evenodd" fill="#E9B54C" d="M56.137,116.463c0.55,0.775,0.001,1.553-0.124,2.262
		c-0.206,1.167,0.099,2.492-0.839,3.488C55.331,120.268,55.571,118.338,56.137,116.463z"/>
	<path fill-rule="evenodd" clip-rule="evenodd" fill="#E9B54C" d="M99.053,53.616c-0.776-0.049-0.822,0.984-1.532,1.034
		c0.158-1.279,1.228-1.548,2.175-1.782c0.91-0.226,1.869-0.148,2.452,0.821c-0.447-0.104-0.896-0.206-1.344-0.309
		C100.145,52.899,99.583,53.139,99.053,53.616z"/>
	<path fill-rule="evenodd" clip-rule="evenodd" fill="#E9B54C" d="M146.84,135.25c-0.5-0.152-0.423-0.652-0.418-0.946
		c0.024-1.52-0.896-2.935-0.482-4.486C146.498,131.585,146.706,133.411,146.84,135.25z"/>
	<path fill-rule="evenodd" clip-rule="evenodd" fill="#E9B54C" d="M78.578,44.54c0.009-0.759-0.991-1.151-0.729-2.003
		c0.959,1.21,1.716,2.523,2.104,4.031c-0.63-0.052-0.502-0.748-0.871-1.021C79.116,45.11,78.735,44.881,78.578,44.54z"/>
	<path fill-rule="evenodd" clip-rule="evenodd" fill="#E9B54C" d="M112.23,73.406c0.039-1.05-1.246-1.618-0.994-2.745
		c0.798,0.871,1.283,1.907,1.599,3.034c-0.122-0.011-0.244-0.021-0.367-0.031C112.39,73.579,112.31,73.492,112.23,73.406z"/>
	<path fill-rule="evenodd" clip-rule="evenodd" fill="#E9B54C" d="M81.72,49.826c-0.829-0.636-1.209-1.521-1.396-2.513
		C81.071,47.995,81.417,48.898,81.72,49.826z"/>
	<path fill-rule="evenodd" clip-rule="evenodd" fill="#E9B54C" d="M110.004,69.144c0.011-0.267,0.022-0.536,0.033-0.803
		c0.524,0.516,1.021,1.043,0.966,1.857c-0.218-0.018-0.415-0.072-0.518-0.292c-0.078-0.088-0.156-0.173-0.235-0.26
		c-0.007-0.079-0.012-0.159-0.019-0.238C110.155,69.32,110.079,69.231,110.004,69.144z"/>
	<path fill-rule="evenodd" clip-rule="evenodd" fill="#E9B54C" d="M77.85,42.536c-0.767-0.426-0.981-1.141-1.021-1.947
		C77.477,41.077,77.665,41.807,77.85,42.536z"/>
	<path fill-rule="evenodd" clip-rule="evenodd" fill="#E9B54C" d="M105.767,60.651c-0.009-0.557-0.916-0.815-0.503-1.512
		c0.526,0.352,0.717,0.882,0.783,1.479c0,0-0.071,0.068-0.071,0.067C105.907,60.661,105.837,60.649,105.767,60.651z"/>
	<path fill-rule="evenodd" clip-rule="evenodd" fill="#E9B54C" d="M109.861,67.924c-0.677-0.151-0.629-0.696-0.648-1.204
		C109.635,67.011,109.844,67.415,109.861,67.924z"/>
	<path fill-rule="evenodd" clip-rule="evenodd" fill="#E9B54C" d="M113.858,75.706c-0.356-0.094-0.427-0.329-0.325-0.652
		C113.78,75.2,113.939,75.395,113.858,75.706z"/>
	<path fill-rule="evenodd" clip-rule="evenodd" fill="#E9B54C" d="M97.351,55.037c-0.059,0.106-0.118,0.212-0.177,0.318
		C97.097,55.174,97.099,55.036,97.351,55.037z"/>
	<polygon fill-rule="evenodd" clip-rule="evenodd" fill="#E9B54C" points="113.947,75.847 113.938,75.836 114.008,75.824 	"/>
	<path fill-rule="evenodd" clip-rule="evenodd" fill="#E9B54C" d="M113.465,74.917c-0.071-0.104-0.143-0.21-0.213-0.314
		C113.401,74.652,113.483,74.751,113.465,74.917z"/>
	<path fill-rule="evenodd" clip-rule="evenodd" fill="#F48421" d="M90.513,67.142c0.075-0.008,0.151-0.011,0.227-0.009
		c0.088,0.111,0.179,0.119,0.273,0.008c0.078-0.002,0.153,0.005,0.229,0.021c-0.039,0.599,0.225,1.063,0.488,1.6
		c1.038,2.121,2.371,4.087,3.354,6.215c1.172,2.542,2.639,4.913,3.872,7.402c0.771,1.55,1.543,3.127,2.231,4.729
		c0.409,0.955,1.381,1.616,1.472,2.747c-3.911,3.922-7.807,7.856-11.73,11.761c-12.252,12.193-24.515,24.375-36.778,36.558
		c-0.35,0.348-0.645,0.77-1.138,0.947c-0.269-0.309-0.018-0.612,0.012-0.918c0.928-1.515,1.975-2.972,2.751-4.562
		c0.922-1.894,2.083-3.667,2.925-5.574c0.753-1.702,1.896-3.177,2.465-5.009c0.451-1.446,1.509-2.722,2.219-4.13
		c1.963-3.898,4.094-7.713,6.148-11.564c1.813-3.398,3.662-6.78,5.404-10.217c2.219-4.377,4.554-8.688,6.912-12.991
		c1.776-3.242,3.628-6.462,5.137-9.832C88.081,71.882,89.771,69.743,90.513,67.142z"/>
	<path fill-rule="evenodd" clip-rule="evenodd" fill="#F7AE34" d="M81.834,50.803c0.319,0.155,0.478,0.406,0.469,0.761
		c-0.293-0.078-0.71,0.149-0.864-0.245C81.332,51.045,81.619,50.913,81.834,50.803z"/>
	<path fill-rule="evenodd" clip-rule="evenodd" fill="#F7AE34" d="M78.578,44.54c0.157,0.341,0.538,0.57,0.504,1.008
		C78.294,45.521,78.124,45.187,78.578,44.54z"/>
	<path fill-rule="evenodd" clip-rule="evenodd" fill="#F7AE34" d="M88.261,62.833c0.297,0.175,0.246,0.469,0.254,0.741
		C88.231,63.396,88.272,63.105,88.261,62.833z"/>
	<path fill-rule="evenodd" clip-rule="evenodd" fill="#F7AE34" d="M87.287,61.313c0.078,0.088,0.154,0.175,0.23,0.262
		C87.44,61.487,87.365,61.4,87.287,61.313z"/>
	<path fill-rule="evenodd" clip-rule="evenodd" fill="#F7AE34" d="M84.305,55.554c0.077,0.089,0.154,0.177,0.231,0.265
		C84.459,55.73,84.382,55.643,84.305,55.554z"/>
	<path fill-rule="evenodd" clip-rule="evenodd" fill="#F7AE34" d="M99.053,53.616c0.53-0.478,1.092-0.717,1.751-0.235
		C100.269,53.832,99.635,53.524,99.053,53.616z"/>
	<path fill-rule="evenodd" clip-rule="evenodd" fill="#F7AE34" d="M94.528,61.102c-0.003-0.357,0.166-0.606,0.483-0.763
		C95.032,60.708,95.032,61.063,94.528,61.102z"/>
	<path fill-rule="evenodd" clip-rule="evenodd" fill="#F7AE34" d="M105.767,60.651c0.07-0.002,0.141,0.01,0.209,0.034
		c0.013,0.152,0.025,0.305,0.039,0.457C105.821,61.035,105.773,60.854,105.767,60.651z"/>
	<path fill-rule="evenodd" clip-rule="evenodd" fill="#F7AE34" d="M106.522,62.386c0.081,0.086,0.162,0.172,0.242,0.258
		C106.685,62.558,106.604,62.472,106.522,62.386z"/>
	<path fill-rule="evenodd" clip-rule="evenodd" fill="#F7AE34" d="M110.004,69.144c0.075,0.088,0.151,0.177,0.228,0.265
		C110.155,69.32,110.079,69.231,110.004,69.144z"/>
	<path fill-rule="evenodd" clip-rule="evenodd" fill="#F7AE34" d="M110.25,69.646c0.079,0.087,0.157,0.172,0.235,0.26
		C110.407,69.818,110.329,69.733,110.25,69.646z"/>
	<path fill-rule="evenodd" clip-rule="evenodd" fill="#F7AE34" d="M96.54,57.352c0.004-0.084,0.01-0.17,0.017-0.255
		c0.028,0.063,0.062,0.125,0.077,0.189C96.636,57.3,96.572,57.329,96.54,57.352z"/>
	<path fill-rule="evenodd" clip-rule="evenodd" fill="#F7AE34" d="M112.23,73.406c0.079,0.086,0.159,0.173,0.237,0.258
		C112.39,73.579,112.31,73.492,112.23,73.406z"/>
	<path fill-rule="evenodd" clip-rule="evenodd" fill="#F8A31C" d="M91.013,67.141c-0.095,0.111-0.186,0.104-0.273-0.008
		C90.83,67.136,90.922,67.138,91.013,67.141z"/>
</g>
</svg>
