<?xml version="1.0" encoding="utf-8"?>
<!-- Generator: Adobe Illustrator 16.0.0, SVG Export Plug-In . SVG Version: 6.00 Build 0)  -->
<!DOCTYPE svg PUBLIC "-//W3C//DTD SVG 1.1//EN" "http://www.w3.org/Graphics/SVG/1.1/DTD/svg11.dtd">
<svg version="1.1" id="logo" xmlns="http://www.w3.org/2000/svg" xmlns:xlink="http://www.w3.org/1999/xlink" x="0px" y="0px"
	 width="200px" height="200px" viewBox="0 0 200 200" enable-background="new 0 0 200 200" xml:space="preserve">
<g>
	<path fill-rule="evenodd" clip-rule="evenodd" fill="#43B783" d="M159.999,48.715c-1.07,1.133-1.662,2.57-2.427,3.89
		c-18.887,32.526-37.756,65.063-56.629,97.598c-0.271,0.468-0.554,0.929-0.843,1.412c-0.634-0.254-0.746-0.841-1.005-1.285
		C79.701,116.885,60.314,83.438,40.922,49.994c-0.266-0.461-0.385-1.031-0.922-1.304c0-0.099,0-0.199,0-0.3
		c8.008,0.017,16.016,0.033,24.023,0.048c5.599,9.678,11.194,19.357,16.795,29.034c6.127,10.583,12.274,21.156,18.376,31.756
		c0.645,1.118,0.975,1.142,1.584-0.001c0.963-1.805,2.039-3.549,3.065-5.319c10.71-18.484,21.421-36.971,32.131-55.455
		c8.008-0.012,16.016-0.025,24.025-0.038C159.999,48.515,160,48.615,159.999,48.715z"/>
	<path fill-rule="evenodd" clip-rule="evenodd" fill="#364A5E" d="M64.023,48.438c7.042-0.011,14.083-0.007,21.124-0.053
		c0.988-0.007,1.394,0.54,1.814,1.267c4.016,6.959,8.047,13.91,12.088,20.855c0.259,0.447,0.359,1.199,1.016,1.138
		c0.502-0.048,0.635-0.711,0.881-1.134c4.035-6.949,8.07-13.897,12.091-20.854c0.419-0.727,0.826-1.273,1.814-1.267
		c7.041,0.048,14.082,0.047,21.123,0.062c-10.71,18.484-21.421,36.971-32.131,55.455c-1.026,1.771-2.102,3.515-3.065,5.319
		c-0.609,1.143-0.939,1.119-1.584,0.001c-6.102-10.6-12.249-21.173-18.376-31.756C75.217,67.796,69.622,58.116,64.023,48.438z"/>
</g>
</svg>
