<?xml version="1.0" encoding="utf-8"?>
<!-- Generator: Adobe Illustrator 16.0.0, SVG Export Plug-In . SVG Version: 6.00 Build 0)  -->
<!DOCTYPE svg PUBLIC "-//W3C//DTD SVG 1.1//EN" "http://www.w3.org/Graphics/SVG/1.1/DTD/svg11.dtd">
<svg version="1.1" id="logo" xmlns="http://www.w3.org/2000/svg" xmlns:xlink="http://www.w3.org/1999/xlink" x="0px" y="0px"
	 width="200px" height="200px" viewBox="0 0 200 200" enable-background="new 0 0 200 200" xml:space="preserve">
<g>
	<path fill-rule="evenodd" clip-rule="evenodd" fill="#19ABE0" d="M100.111,35.081c17.844,0.005,35.689,0.109,53.531-0.069
		c3.477-0.035,4.042,1.016,3.744,4.217c-3.42,36.567-6.721,73.147-9.984,109.727c-0.196,2.157-0.559,3.473-3.041,4.128
		c-14.18,3.749-28.307,7.698-42.435,11.64c-1.466,0.408-2.758,0.346-4.206-0.061c-14.003-3.916-28.002-7.838-42.057-11.552
		c-2.452-0.646-2.954-1.937-3.145-4.077c-1.576-17.896-3.236-35.787-4.836-53.683c-1.696-18.943-3.298-37.892-5.083-56.826
		c-0.26-2.762,0.33-3.546,3.19-3.523C63.896,35.134,82.003,35.077,100.111,35.081z M100.188,57.861
		c-0.001,0.046-0.001,0.095,0.001,0.144c-9.574-0.003-19.146-0.006-28.718-0.009c-7.646-0.002-7.645-0.002-6.87,7.795
		c0.064,0.653,0.176,1.316,0.125,1.961c-0.258,3.312,0.995,4.479,4.523,4.441c14.948-0.158,29.897,0.022,44.843,0.067
		c6.419,0.02,6.412,0.004,5.812,6.568c-0.144,1.568-0.32,3.142-0.309,4.709c0.023,2.653-1.105,3.632-3.824,3.597
		c-7.995-0.101-15.996,0.068-23.994,0.09c-8.69,0.023-8.689,0.003-8.096,8.415c0.046,0.654,0.134,1.311,0.108,1.962
		c-0.108,2.774,0.982,3.843,3.957,3.796c8.912-0.148,17.83,0.113,26.745,0.041c2.61-0.022,3.471,0.706,3.108,3.396
		c-0.561,4.15-0.844,8.345-1.048,12.532c-0.102,2.071-1.11,2.87-2.922,3.565c-9.03,3.47-18,3.965-27.083,0.183
		c-1.686-0.702-2.98-1.188-3.138-3.369c-0.21-2.932,0.738-6.94-1.643-8.445c-2.189-1.381-5.858-0.241-8.825-0.608
		c-3.949-0.485-4.651,1.276-4.188,4.72c0.644,4.804,1.093,9.646,1.33,14.485c0.125,2.534,1.105,3.63,3.539,4.256
		c7.998,2.058,15.933,4.349,23.887,6.57c1.537,0.433,3.034,0.688,4.634,0.239c8.332-2.332,16.667-4.65,25.021-6.901
		c1.927-0.521,2.724-1.558,2.898-3.571c1.958-22.46,3.964-44.914,6.058-67.361c0.226-2.437-0.426-3.306-2.887-3.29
		C122.219,57.907,111.202,57.864,100.188,57.861z"/>
	<path fill-rule="evenodd" clip-rule="evenodd" fill="#E7E9EB" d="M100.188,57.861c11.015,0.002,22.031,0.046,33.045-0.023
		c2.461-0.017,3.112,0.853,2.887,3.29c-2.094,22.447-4.1,44.901-6.058,67.361c-0.175,2.014-0.972,3.051-2.898,3.571
		c-8.354,2.251-16.688,4.569-25.021,6.901c-1.6,0.448-3.097,0.193-4.634-0.239c-7.954-2.222-15.889-4.513-23.887-6.57
		c-2.434-0.626-3.414-1.722-3.539-4.256c-0.237-4.839-0.687-9.682-1.33-14.485c-0.463-3.443,0.239-5.205,4.188-4.72
		c2.967,0.367,6.636-0.772,8.825,0.608c2.381,1.505,1.433,5.514,1.643,8.445c0.157,2.182,1.452,2.667,3.138,3.369
		c9.083,3.782,18.053,3.287,27.083-0.183c1.812-0.695,2.82-1.494,2.922-3.565c0.204-4.187,0.487-8.382,1.048-12.532
		c0.362-2.691-0.498-3.419-3.108-3.396c-8.915,0.072-17.833-0.189-26.745-0.041c-2.975,0.047-4.065-1.021-3.957-3.796
		c0.025-0.652-0.063-1.308-0.108-1.962c-0.594-8.412-0.595-8.391,8.096-8.415c7.998-0.021,15.999-0.19,23.994-0.09
		c2.719,0.035,3.848-0.944,3.824-3.597c-0.012-1.567,0.165-3.141,0.309-4.709c0.601-6.564,0.607-6.548-5.812-6.568
		c-14.945-0.044-29.895-0.225-44.843-0.067c-3.528,0.038-4.781-1.129-4.523-4.441c0.051-0.645-0.061-1.308-0.125-1.961
		c-0.774-7.797-0.776-7.797,6.87-7.795c9.572,0.003,19.144,0.006,28.718,0.009C100.187,57.956,100.187,57.908,100.188,57.861z"/>
</g>
</svg>
