<?xml version="1.0" encoding="utf-8"?>
<!-- Generator: Adobe Illustrator 16.0.0, SVG Export Plug-In . SVG Version: 6.00 Build 0)  -->
<!DOCTYPE svg PUBLIC "-//W3C//DTD SVG 1.1//EN" "http://www.w3.org/Graphics/SVG/1.1/DTD/svg11.dtd">
<svg version="1.1" id="logo" xmlns="http://www.w3.org/2000/svg" xmlns:xlink="http://www.w3.org/1999/xlink" x="0px" y="0px"
	 width="200px" height="200px" viewBox="0 0 200 200" enable-background="new 0 0 200 200" xml:space="preserve">
<g>
	<path fill-rule="evenodd" clip-rule="evenodd" fill="#D95998" d="M62.727,85.951c6.001,5.964,12.942,5.67,20.055,4.216
		c8.491-1.734,15.908-5.52,21.898-11.878c2.406-2.553,4.331-5.427,5.395-8.803c1.961-6.205-0.146-10.498-6.329-12.469
		c-6.367-2.029-12.863-1.562-19.214-0.042c-13.161,3.147-24.802,9.397-35.128,18.099c-2.487,2.097-4.62,4.54-6.313,7.34
		c-4.21,6.975-3.567,13.36,1.973,19.337c3.959,4.271,8.875,7.404,13.293,11.134c4.419,3.726,4.392,3.679,9.429,0.957
		c4.462-2.413,9.024-4.596,12.332-8.707c1.444-1.797,3.564-2.949,5.739-3.807c4.541-1.792,7.262-0.068,7.439,4.81
		c0.063,1.688-0.254,3.036,2.334,2.856c1.721-0.118,2.525,1.247,1.983,3.17c-1.01,3.555-1.948,7.138-2.792,10.733
		c-0.444,1.885-0.986,3.806-0.436,5.965c1.46-0.546,1.687-1.915,2.154-2.959c4.159-9.27,8.911-18.287,11.995-28.013
		c0.506-1.604,1.557-2.217,3.07-2.263c1.807-0.059,3.769-0.774,5.327,0.615c1.006,0.897,0.005,1.972-0.288,2.885
		c-1.484,4.608-1.39,9.046,1.431,14.087c3.425-5.988,7.02-11.261,8.82-17.49c1.119-3.872,3.884-5.421,7.775-4.313
		c2.132,0.607,1.467,1.911,1.004,3.261c-1.615,4.707-1.428,9.259,0.875,13.772c0.934,1.83,1.719,2.166,3.71,1.372
		c5.744-2.285,11.746-2.71,17.691-0.905c6.286,1.906,10.79,5.772,11.913,12.624c0.814,4.964-2.125,9.092-7.072,10.13
		c-0.405-0.712,0.202-0.964,0.599-1.3c5.07-4.314,5.147-9.479-0.053-13.718c-5.308-4.325-11.653-4.651-18.126-4.046
		c-1.145,0.107-2.267,0.449-3.395,0.698c-1.722,0.385-2.362,1.055-1.873,3.13c1.624,6.924-5.142,14.855-12.331,14.717
		c-2.757-0.051-3.565-1.797-3.349-4.204c0.389-4.293,2.764-7.612,5.772-10.378c1.852-1.703,2.185-3.017,0.987-5.276
		c-1.168-2.202-1.697-4.742-2.66-7.589c-2.789,4.614-5.451,8.935-8.018,13.314c-0.598,1.02,0.327,1.995,0.604,2.963
		c2.507,8.806-6.196,17.882-15.11,15.718c-2.414-0.586-2.999-2.169-1.297-4.438c2.429-3.234,5.068-6.314,7.672-9.414
		c1.315-1.569,1.729-2.985,0.5-4.926c-1.651-2.609-2.178-5.731-3.256-9.44c-3.124,7.275-5.917,13.854-9.365,20.109
		c-1.448,2.629-2.644,5.421-4.629,7.716c-1.223,1.412-2.563,2.842-4.719,2.198c-2.16-0.646-2.459-2.557-2.695-4.423
		c-0.17-1.344-0.258-2.693-0.461-4.922c-1.61,3.166-2.802,5.609-4.087,8.003c-1.093,2.026-2.541,3.526-5.145,3.458
		c-2.646-0.07-3.838-1.816-4.877-3.83c-2.509-4.863-2.569-9.997-1.655-15.232c0.23-1.324,0.513-2.64,0.824-4.23
		c-2.593,0.676-4.376,2.177-6.382,3.227c-1.821,0.951-0.556,2.209-0.263,3.282c3.151,11.524-2.572,23.527-13.513,28.026
		c-3.334,1.372-6.789,2.187-10.485,1.442c-4.645-0.938-7.014-3.458-7.391-8.201c-0.383-4.812,1.331-8.84,4.643-12.248
		c4.327-4.451,9.547-7.649,14.958-10.57c3.407-1.836,3.416-1.83,0.174-4.206c-4.665-3.415-9.39-6.752-13.982-10.263
		c-2.953-2.255-5.447-5.006-7.5-8.13c-3.225-4.902-3.933-9.969-1.3-15.406c1.421-2.937,2.932-5.819,5.133-8.207
		c14.794-16.027,32.988-25.4,54.759-27.499c4.975-0.48,9.942,0.153,14.702,1.856c10.425,3.731,14.287,11.842,10.655,22.356
		c-1.94,5.618-5.311,10.297-9.875,14.006C96.912,93.973,85.3,96.789,72.542,95.073c-3.177-0.429-5.926-1.958-8.15-4.276
		C63.297,89.656,62.111,88.455,62.727,85.951z M61.587,126.997c-0.012-0.148-0.033-0.609-0.084-1.068
		c-0.413-3.797-0.511-3.842-3.707-1.906c-3.265,1.978-6.373,4.172-9.24,6.692c-2.476,2.18-4.363,4.777-5.226,7.999
		c-1.214,4.544,0.924,6.727,5.477,5.658C55.8,142.731,61.667,134.902,61.587,126.997z M78.269,125.752
		c0.019,0.266,0.031,1.191,0.154,2.103c0.165,1.221,0.084,2.852,1.562,3.117c1.315,0.237,1.804-1.263,2.253-2.261
		c1.23-2.722,2.427-5.467,3.456-8.271c1.345-3.665,2.576-7.38,3.719-11.115c0.309-0.998,0.931-2.416-0.357-3.109
		c-1.13-0.612-2.215,0.266-3.099,1.003c-0.792,0.66-1.591,1.362-2.19,2.187C80.372,114.077,78.279,119.227,78.269,125.752z
		 M128.727,126.577c5.086-1.473,6.941-4.836,5.246-9.424C131.155,119.748,129.305,122.664,128.727,126.577z M115.271,123.765
		c-2.02,2.394-4.039,4.787-6.059,7.179C112.65,129.73,115.147,127.754,115.271,123.765z"/>
</g>
</svg>
