<?xml version="1.0" encoding="utf-8"?>
<!-- Generator: Adobe Illustrator 16.0.0, SVG Export Plug-In . SVG Version: 6.00 Build 0)  -->
<!DOCTYPE svg PUBLIC "-//W3C//DTD SVG 1.1//EN" "http://www.w3.org/Graphics/SVG/1.1/DTD/svg11.dtd">
<svg version="1.1" xmlns="http://www.w3.org/2000/svg" xmlns:xlink="http://www.w3.org/1999/xlink" x="0px" y="0px" width="216px"
	 height="41.5px" viewBox="0 0 216 41.5" enable-background="new 0 0 216 41.5" xml:space="preserve">
<g id="Layer_2">
	<rect fill="#112247" width="216" height="41.5"/>
</g>
<g id="Layer_1">
	<g>
		<path fill="#FFFFFF" d="M0,32.692l2.613-0.363L14.93,0.508h4.09l12.099,31.821l2.589,0.363v3.049H23.593v-3.049l2.662-0.46
			l-2.324-6.485H9.824l-2.395,6.485l2.661,0.46v3.049H0V32.692z M11.301,21.754h11.179L17.011,6.63h-0.146L11.301,21.754z"/>
		<path fill="#FFFFFF" d="M36.418,32.692l3.944-0.677V13.308l-3.944-0.677V9.558h8.203l0.339,3.896
			c0.871-1.387,1.964-2.463,3.279-3.23c1.314-0.766,2.81-1.149,4.489-1.149c2.822,0,5.009,0.827,6.558,2.48
			c1.548,1.654,2.323,4.207,2.323,7.659v12.802l3.944,0.677v3.049H52.896v-3.049l3.944-0.677V19.31c0-2.307-0.456-3.944-1.367-4.912
			c-0.912-0.969-2.302-1.452-4.174-1.452c-1.371,0-2.585,0.331-3.642,0.993c-1.056,0.661-1.9,1.565-2.529,2.709v15.367l3.944,0.677
			v3.049H36.418V32.692z"/>
		<path fill="#FFFFFF" d="M68.794,22.407c0-3.872,1.049-7.061,3.146-9.57c2.097-2.508,4.944-3.763,8.542-3.763
			c3.614,0,6.474,1.251,8.578,3.751c2.106,2.5,3.158,5.695,3.158,9.582v0.533c0,3.904-1.048,7.099-3.145,9.583
			c-2.097,2.485-4.945,3.726-8.543,3.726c-3.629,0-6.493-1.246-8.59-3.738s-3.146-5.683-3.146-9.57V22.407z M73.563,22.94
			c0,2.775,0.583,5.066,1.754,6.872c1.169,1.807,2.908,2.71,5.214,2.71c2.259,0,3.978-0.903,5.154-2.71
			c1.178-1.806,1.767-4.097,1.767-6.872v-0.533c0-2.742-0.588-5.024-1.767-6.848c-1.176-1.823-2.912-2.734-5.203-2.734
			s-4.017,0.911-5.179,2.734c-1.161,1.823-1.741,4.106-1.741,6.848V22.94z"/>
		<path fill="#FFFFFF" d="M95.874,32.692l3.945-0.677V13.308l-3.945-0.677V9.558h8.204l0.337,3.896
			c0.873-1.387,1.965-2.463,3.279-3.23c1.316-0.766,2.812-1.149,4.49-1.149c2.824,0,5.008,0.827,6.557,2.48
			c1.549,1.654,2.324,4.207,2.324,7.659v12.802l3.943,0.677v3.049h-12.656v-3.049l3.945-0.677V19.31
			c0-2.307-0.455-3.944-1.367-4.912c-0.91-0.969-2.303-1.452-4.176-1.452c-1.369,0-2.584,0.331-3.64,0.993
			c-1.057,0.661-1.899,1.565-2.53,2.709v15.367l3.944,0.677v3.049H95.874V32.692z"/>
		<path fill="#FFFFFF" d="M141.874,22.722H130.04v-3.727h11.834V22.722z"/>
		<path fill="#FFFFFF" d="M178.705,18.391c0,3.13-0.58,5.985-1.742,8.566c-1.162,2.581-2.783,4.662-4.863,6.243l7.137,5.033
			l-3.266,2.904l-8.01-5.711c-0.807,0.259-1.638,0.46-2.491,0.606c-0.856,0.145-1.727,0.217-2.614,0.217
			c-4.55,0-8.244-1.693-11.083-5.082c-2.84-3.388-4.258-7.646-4.258-12.776v-0.509c0-5.113,1.418-9.373,4.258-12.776
			C154.611,1.702,158.306,0,162.855,0c4.678,0,8.488,1.702,11.432,5.105c2.945,3.404,4.418,7.663,4.418,12.776V18.391z
			 M173.938,17.834c0-4.099-0.98-7.442-2.939-10.031c-1.961-2.589-4.675-3.884-8.143-3.884c-3.323,0-5.916,1.298-7.78,3.896
			c-1.862,2.597-2.794,5.937-2.794,10.019v0.556c0,4.13,0.932,7.489,2.794,10.078c1.864,2.589,4.457,3.884,7.78,3.884
			c3.517,0,6.242-1.29,8.178-3.872c1.938-2.581,2.904-5.944,2.904-10.09V17.834z"/>
		<path fill="#FFFFFF" d="M213.695,18.391c0,3.13-0.581,5.985-1.741,8.566c-1.163,2.581-2.785,4.662-4.865,6.243l7.14,5.033
			l-3.266,2.904l-8.01-5.711c-0.809,0.259-1.639,0.46-2.494,0.606c-0.855,0.145-1.725,0.217-2.613,0.217
			c-4.549,0-8.244-1.693-11.084-5.082c-2.838-3.388-4.258-7.646-4.258-12.776v-0.509c0-5.113,1.42-9.373,4.258-12.776
			C189.602,1.702,193.297,0,197.846,0c4.678,0,8.49,1.702,11.432,5.105c2.945,3.404,4.418,7.663,4.418,12.776V18.391z
			 M208.927,17.834c0-4.099-0.98-7.442-2.938-10.031c-1.962-2.589-4.675-3.884-8.144-3.884c-3.322,0-5.916,1.298-7.779,3.896
			c-1.863,2.597-2.795,5.937-2.795,10.019v0.556c0,4.13,0.932,7.489,2.795,10.078c1.863,2.589,4.457,3.884,7.779,3.884
			c3.516,0,6.244-1.29,8.177-3.872c1.938-2.581,2.904-5.944,2.904-10.09V17.834z"/>
	</g>
</g>
</svg>
