<?xml version="1.0" encoding="utf-8"?>
<!-- Generator: Adobe Illustrator 16.0.0, SVG Export Plug-In . SVG Version: 6.00 Build 0)  -->
<!DOCTYPE svg PUBLIC "-//W3C//DTD SVG 1.1//EN" "http://www.w3.org/Graphics/SVG/1.1/DTD/svg11.dtd">
<svg version="1.1" id="Layer_1" xmlns="http://www.w3.org/2000/svg" xmlns:xlink="http://www.w3.org/1999/xlink" x="0px" y="0px"
	 width="260px" height="260px" viewBox="0 0 260 260" enable-background="new 0 0 260 260" xml:space="preserve">
<g>
	<path fill="none" stroke="#D32728" stroke-width="6" stroke-miterlimit="10" d="M130.171,21.616
		c20.486-0.049,40.979-0.314,61.443,0.908c9.307,0.556,18.552,1.569,27.602,4.019c11.45,3.101,18.626,10.312,21.914,21.701
		c3.222,11.154,3.913,22.603,4.315,34.075c0.804,22.974,1.266,45.964-2.392,68.773c-3.36,20.95-12.054,29.265-33.181,32.434
		c-16.521,2.479-33.17,2.845-49.815,2.841c-29.979-0.009-59.964,0.687-89.93-0.806c-8.658-0.431-17.231-1.418-25.734-3.133
		c-14.642-2.953-23.349-11.624-26.527-26.285c-2.2-10.154-2.987-20.415-3.335-30.719c-0.777-22.974-1.231-45.967,2.43-68.775
		C20.26,36.098,29.13,27.628,49.875,24.501c15.359-2.316,30.831-2.71,46.316-2.863C107.517,21.526,118.845,21.616,130.171,21.616z"
		/>
	<path fill="#D32728" d="M86.13,135.911V72.167c20.368,10.689,40.381,21.192,61.035,32.033
		C126.438,114.97,106.49,125.333,86.13,135.911"/>
	<path fill="#D32728" d="M132.833,135.911V72.167c20.367,10.689,40.381,21.192,61.036,32.033
		C173.141,114.97,153.192,125.333,132.833,135.911"/>
</g>
<g>
	<path fill="#FFFFFF" d="M34.161,211.965h4.992v22.368h-4.992V211.965z"/>
	<path fill="#FFFFFF" d="M61.841,211.965h4.992v22.368h-4.992l-10.656-14.016v14.016h-4.992v-22.368h4.672l10.976,14.4V211.965z"/>
	<path fill="#FFFFFF" d="M79.104,216.429c-0.48,0.396-0.72,0.918-0.72,1.568c0,0.651,0.293,1.168,0.88,1.552
		c0.586,0.384,1.941,0.838,4.064,1.36c2.123,0.522,3.771,1.307,4.944,2.352c1.173,1.046,1.76,2.571,1.76,4.576
		c0,2.006-0.752,3.632-2.256,4.88c-1.504,1.248-3.483,1.872-5.936,1.872c-3.542,0-6.731-1.312-9.568-3.936l2.976-3.648
		c2.411,2.112,4.64,3.168,6.688,3.168c0.917,0,1.637-0.197,2.16-0.592c0.522-0.395,0.784-0.928,0.784-1.6
		c0-0.673-0.277-1.205-0.832-1.601c-0.555-0.395-1.654-0.794-3.296-1.2c-2.603-0.618-4.507-1.424-5.712-2.416
		c-1.206-0.991-1.808-2.549-1.808-4.672c0-2.122,0.763-3.76,2.288-4.912c1.525-1.151,3.429-1.728,5.712-1.728
		c1.493,0,2.987,0.256,4.48,0.768c1.493,0.513,2.795,1.238,3.904,2.177l-2.528,3.647c-1.941-1.472-3.947-2.208-6.016-2.208
		C80.24,215.837,79.584,216.034,79.104,216.429z"/>
	<path fill="#FFFFFF" d="M105.104,216.285v18.048h-4.992v-18.048h-6.336v-4.32h17.664v4.32H105.104z"/>
	<path fill="#FFFFFF" d="M130.928,234.333l-2.08-4.832h-9.376l-2.08,4.832h-5.312l9.664-22.368h4.832l9.665,22.368H130.928z
		 M124.176,218.621l-2.816,6.496h5.6L124.176,218.621z"/>
	<path fill="#FFFFFF" d="M148.208,216.285v18.048h-4.992v-18.048h-6.336v-4.32h17.664v4.32H148.208z"/>
	<path fill="#FFFFFF" d="M165.647,228.557c0.832,1.035,1.952,1.553,3.36,1.553s2.522-0.518,3.344-1.553
		c0.821-1.034,1.232-2.447,1.232-4.239v-12.353h4.991v12.512c0,3.243-0.896,5.734-2.688,7.473c-1.792,1.739-4.086,2.607-6.88,2.607
		c-2.795,0-5.094-0.874-6.896-2.624c-1.803-1.749-2.704-4.234-2.704-7.456v-12.512h4.992v12.353
		C164.399,226.109,164.815,227.522,165.647,228.557z"/>
	<path fill="#FFFFFF" d="M195.087,234.333h-9.792v-22.368h8.704c1.515,0,2.821,0.182,3.92,0.544c1.099,0.363,1.925,0.854,2.48,1.473
		c1.002,1.151,1.504,2.453,1.504,3.903c0,1.75-0.565,3.051-1.696,3.904c-0.384,0.299-0.651,0.485-0.8,0.56
		c-0.149,0.075-0.416,0.198-0.8,0.368c1.386,0.299,2.49,0.923,3.312,1.872s1.232,2.128,1.232,3.536c0,1.558-0.534,2.934-1.601,4.128
		C200.313,233.64,198.159,234.333,195.087,234.333z M190.287,221.021h2.368c1.386,0,2.416-0.149,3.088-0.448
		s1.008-0.944,1.008-1.937s-0.31-1.647-0.928-1.968c-0.619-0.32-1.664-0.479-3.137-0.479h-2.399V221.021z M190.287,230.109h3.424
		c1.429,0,2.501-0.177,3.216-0.528s1.072-1.045,1.072-2.08c0-1.034-0.379-1.717-1.136-2.048c-0.758-0.331-1.969-0.496-3.632-0.496
		h-2.944V230.109z"/>
	<path fill="#FFFFFF" d="M225.007,211.965v4.448h-11.136v4.608h10.016v4.256h-10.016v4.64h11.488v4.416h-16.48v-22.368H225.007z"/>
</g>
</svg>
