<?xml version="1.0" encoding="utf-8"?>
<!-- Generator: Adobe Illustrator 16.0.0, SVG Export Plug-In . SVG Version: 6.00 Build 0)  -->
<!DOCTYPE svg PUBLIC "-//W3C//DTD SVG 1.1//EN" "http://www.w3.org/Graphics/SVG/1.1/DTD/svg11.dtd">
<svg version="1.1" id="Layer_1" xmlns="http://www.w3.org/2000/svg" xmlns:xlink="http://www.w3.org/1999/xlink" x="0px" y="0px"
	 width="222.566px" height="81.75px" viewBox="0 0 222.566 81.75" enable-background="new 0 0 222.566 81.75" xml:space="preserve">
<g>
	<g>
		<path fill-rule="evenodd" clip-rule="evenodd" fill="#F3F3F3" d="M0.008,40.83c0-5.994,0.001-11.209-0.001-16.825
			c-0.001-2.12,0.417-4.055,2.704-4.818c2.126-0.71,4.059-0.239,5.127,1.86c0.736,1.447,1.313,0.865,2.268,0.319
			c8.244-4.714,13.642-4.268,21.092,2.062c1.673,1.421,2.117,0.142,2.927-0.575c4.21-3.723,9.186-4.913,14.631-4.337
			c7.291,0.769,12.776,6.55,13.123,14.526c0.368,8.472,0.14,16.971,0.143,25.458c0,2.682-1.396,4.36-4.078,4.343
			c-2.89-0.018-4.155-1.85-4.149-4.679c0.015-7.614,0.112-15.23-0.048-22.841c-0.142-6.748-4.97-10.656-11.086-9.266
			c-4.354,0.99-7.102,4.298-7.328,9.644c-0.267,6.355-0.129,12.727-0.164,19.091c-0.006,1.124-0.029,2.248,0.001,3.37
			c0.076,2.834-1.167,4.685-4.099,4.668c-2.937-0.015-4.133-1.995-4.149-4.727c-0.034-5.742-0.012-11.482-0.014-17.225
			c-0.001-1.998,0.057-3.997-0.024-5.991c-0.226-5.562-3.319-8.823-8.48-9.024C13.293,25.665,9,29.03,8.685,34.212
			C8.291,40.68,8.488,47.183,8.431,53.67c-0.014,1.622,0.048,3.249-0.054,4.866c-0.162,2.585-1.419,4.31-4.186,4.283
			c-2.753-0.026-4.099-1.791-4.14-4.367c-0.094-5.865-0.029-11.629-0.029-17.623C0.017,40.83,0.012,40.83,0.008,40.83z"/>
	</g>
	<g>
		<path fill-rule="evenodd" clip-rule="evenodd" fill="#F3F3F3" d="M133.897,25.332c4.438-4.181,8.813-6.64,14.178-6.852
			c8.393-0.333,14.867,3.126,18.855,10.448c4.53,8.32,4.454,16.877-0.936,24.778c-4.986,7.313-12.365,10.382-21.119,9.258
			c-11-1.413-18.733-9.49-19.144-20.577c-0.465-12.57-0.178-25.168-0.203-37.755c-0.006-2.796,1.324-4.667,4.206-4.632
			c2.887,0.035,4.143,1.996,4.152,4.739C133.915,11.337,133.897,17.934,133.897,25.332z M161.913,40.794
			c0.012-8.643-5.984-14.969-14.193-14.972c-8.117-0.003-14.307,6.48-14.303,14.984c0.004,8.483,6.256,15.055,14.307,15.039
			C155.835,55.828,161.901,49.395,161.913,40.794z"/>
	</g>
	<g>
		<path fill-rule="evenodd" clip-rule="evenodd" fill="#F3F3F3" d="M96.875,43.76c-4.248,0.001-8.511,0.218-12.739-0.065
			c-3.542-0.238-3.277,1.244-2.262,3.625c3.247,7.609,12.856,10.97,21.009,7.303c0.342-0.153,0.703-0.281,1.014-0.482
			c2.616-1.688,5.678-3.659,7.614,0.204c2.041,4.072-2.158,4.966-4.576,6.161c-10.808,5.342-23.464,2.389-29.834-6.744
			c-6.16-8.829-4.854-22.174,2.893-29.583c5.936-5.676,15.846-7.518,23.41-4.153c8.159,3.63,11.202,10.563,11.741,18.95
			c0.213,3.307-1.555,4.797-4.776,4.787C105.871,43.748,101.373,43.758,96.875,43.76z M94.03,37.189
			c4.097,0,7.597,0.054,10.856,0.054c2.786,0,2.78-0.981,2.12-3.058c-1.719-5.41-6.399-8.877-12.102-8.835
			c-6.47,0.048-11.725,3.821-13.412,9.442c-0.526,1.753-0.376,2.426,1.679,2.426C87.001,37.219,90.41,37.188,94.03,37.189z"/>
	</g>
	<g>
		<path fill-rule="evenodd" clip-rule="evenodd" fill="#F3F3F3" d="M214.039,58.245c-4.174,3.347-8.521,5.001-13.445,5.018
			c-10.703,0.035-18.703-7.227-19.207-17.906c-0.348-7.345-0.105-14.717-0.15-22.077c-0.018-2.699,1.338-4.429,3.945-4.505
			c2.811-0.083,4.291,1.673,4.295,4.536c0.008,6.487-0.064,12.976,0.033,19.462c0.148,9.904,8.076,15.404,17.468,12.213
			c4.585-1.558,7.261-5.213,7.298-10.186c0.051-6.862,0.082-13.725-0.014-20.585c-0.043-3.039,0.842-5.439,4.154-5.455
			c3.336-0.015,4.172,2.403,4.15,5.434c-0.078,10.978-0.047,21.957-0.018,32.936c0.008,2.509-0.15,4.921-3.219,5.48
			C216.262,63.168,214.656,61.514,214.039,58.245z"/>
	</g>
</g>
<g>
	<path fill="#F3F3F3" d="M5.683,74.172c0,1.302-0.223,2.292-0.67,2.969c-0.446,0.677-1.114,1.016-2.002,1.016
		c-0.966,0-1.687-0.391-2.165-1.172v4.266H0V69.547h0.785l0.039,1.156c0.493-0.875,1.214-1.313,2.164-1.313
		c0.898,0,1.571,0.323,2.018,0.969c0.446,0.646,0.672,1.633,0.677,2.961V74.172z M4.829,73.38c0-1.082-0.166-1.878-0.497-2.388
		C4,70.482,3.483,70.227,2.78,70.227c-0.904,0-1.548,0.466-1.933,1.397v4.448c0.385,0.848,1.035,1.272,1.948,1.272
		c0.688,0,1.198-0.255,1.529-0.765s0.499-1.295,0.504-2.357V73.38z"/>
	<path fill="#F3F3F3" d="M15.873,70.36c-0.206-0.036-0.385-0.055-0.54-0.055c-0.472,0-0.869,0.164-1.189,0.492
		c-0.321,0.328-0.548,0.784-0.682,1.367V78h-0.854v-8.453h0.839l0.015,1.266c0.406-0.948,1.042-1.422,1.91-1.422
		c0.226,0,0.397,0.034,0.516,0.102L15.873,70.36z"/>
	<path fill="#F3F3F3" d="M21.833,73.344c0-1.219,0.272-2.182,0.816-2.891c0.544-0.708,1.286-1.063,2.226-1.063
		c0.944,0,1.688,0.349,2.229,1.047c0.542,0.698,0.815,1.659,0.82,2.883v0.898c0,1.24-0.274,2.206-0.82,2.898
		c-0.547,0.693-1.285,1.039-2.214,1.039s-1.666-0.338-2.21-1.016c-0.544-0.677-0.827-1.609-0.847-2.797V73.344z M22.695,74.215
		c0,0.973,0.194,1.738,0.582,2.294c0.388,0.557,0.925,0.835,1.613,0.835c0.704,0,1.241-0.268,1.614-0.804
		c0.372-0.536,0.561-1.303,0.565-2.302v-0.897c0-0.973-0.195-1.739-0.585-2.298c-0.39-0.559-0.927-0.839-1.609-0.839
		c-0.663,0-1.188,0.273-1.579,0.819c-0.39,0.546-0.59,1.298-0.601,2.255V74.215z"/>
	<path fill="#F3F3F3" d="M40.516,74.172c0,1.302-0.223,2.292-0.67,2.969c-0.446,0.677-1.114,1.016-2.002,1.016
		c-0.965,0-1.687-0.391-2.165-1.172v4.266h-0.847V69.547h0.786l0.038,1.156c0.493-0.875,1.214-1.313,2.164-1.313
		c0.899,0,1.571,0.323,2.018,0.969c0.446,0.646,0.672,1.633,0.677,2.961V74.172z M39.662,73.38c0-1.082-0.166-1.878-0.497-2.388
		c-0.332-0.51-0.849-0.765-1.552-0.765c-0.903,0-1.548,0.466-1.933,1.397v4.448c0.385,0.848,1.035,1.272,1.949,1.272
		c0.688,0,1.198-0.255,1.529-0.765s0.499-1.295,0.504-2.357V73.38z"/>
	<path fill="#F3F3F3" d="M50.189,78.157c-0.98,0-1.748-0.325-2.303-0.977c-0.554-0.651-0.837-1.578-0.847-2.781v-1.031
		c0-1.239,0.267-2.212,0.801-2.918c0.534-0.706,1.268-1.059,2.202-1.059c0.904,0,1.593,0.3,2.068,0.898
		c0.474,0.599,0.717,1.516,0.727,2.75v0.813h-4.952v0.477c0,0.969,0.205,1.716,0.612,2.242c0.408,0.526,0.984,0.789,1.729,0.789
		c0.821,0,1.486-0.305,1.995-0.914l0.446,0.578C52.125,77.779,51.298,78.157,50.189,78.157z M50.042,70.204
		c-0.672,0-1.189,0.241-1.552,0.723c-0.362,0.482-0.561,1.187-0.597,2.113h4.089v-0.227C51.942,71.074,51.295,70.204,50.042,70.204z
		"/>
	<path fill="#F3F3F3" d="M62.858,70.36c-0.205-0.036-0.385-0.055-0.539-0.055c-0.473,0-0.869,0.164-1.19,0.492
		s-0.548,0.784-0.682,1.367V78h-0.854v-8.453h0.839l0.015,1.266c0.406-0.948,1.042-1.422,1.91-1.422
		c0.226,0,0.398,0.034,0.516,0.102L62.858,70.36z"/>
	<path fill="#F3F3F3" d="M70.967,67.391v2.156h1.425v0.781h-1.425v5.617c0,0.464,0.068,0.809,0.204,1.035
		c0.136,0.227,0.363,0.34,0.682,0.34c0.139,0,0.344-0.026,0.616-0.078l0.023,0.781c-0.195,0.088-0.475,0.133-0.839,0.133
		c-1.001,0-1.515-0.698-1.54-2.094v-5.734h-1.287v-0.781h1.287v-2.156H70.967z"/>
	<path fill="#F3F3F3" d="M81.41,76.571l1.987-7.023h0.917l-2.934,9.805l-0.162,0.469c-0.395,1.063-1.001,1.594-1.817,1.594
		c-0.195,0-0.4-0.037-0.616-0.109l-0.008-0.797c0.118,0.036,0.249,0.055,0.393,0.055c0.369,0,0.672-0.112,0.909-0.336
		c0.236-0.224,0.431-0.586,0.585-1.086l0.354-1.195l-2.618-8.398h0.939L81.41,76.571z"/>
	<path fill="#F3F3F3" d="M99.994,69.547l0.023,1.266c0.519-0.948,1.263-1.422,2.233-1.422c1.073,0,1.766,0.519,2.079,1.555
		c0.262-0.516,0.6-0.903,1.013-1.164c0.413-0.26,0.863-0.391,1.352-0.391c1.499,0,2.267,0.979,2.302,2.938V78h-0.855v-5.617
		c-0.01-0.729-0.144-1.272-0.4-1.629c-0.257-0.356-0.678-0.535-1.263-0.535c-0.529,0.011-0.976,0.219-1.34,0.625
		c-0.364,0.406-0.572,0.917-0.624,1.531V78h-0.863v-5.594c0-0.739-0.134-1.289-0.404-1.648c-0.27-0.359-0.69-0.539-1.259-0.539
		c-0.467,0-0.872,0.164-1.213,0.492c-0.342,0.328-0.589,0.797-0.744,1.406V78h-0.854v-8.453H99.994z"/>
	<path fill="#F3F3F3" d="M120.572,78c-0.077-0.271-0.129-0.661-0.154-1.172c-0.257,0.422-0.586,0.749-0.99,0.98
		s-0.841,0.348-1.313,0.348c-0.719,0-1.278-0.206-1.679-0.617c-0.4-0.411-0.601-0.997-0.601-1.758c0-0.828,0.278-1.484,0.836-1.969
		c0.557-0.484,1.326-0.729,2.307-0.734h1.432v-1.18c0-0.604-0.147-1.038-0.443-1.301c-0.295-0.263-0.728-0.395-1.297-0.395
		c-0.529,0-0.963,0.156-1.302,0.469s-0.508,0.716-0.508,1.211l-0.855-0.008c0-0.692,0.257-1.28,0.77-1.762
		c0.514-0.481,1.158-0.723,1.933-0.723c0.837,0,1.471,0.214,1.902,0.641c0.431,0.427,0.647,1.05,0.647,1.867v4.148
		c0,0.828,0.075,1.448,0.224,1.859V78H120.572z M118.223,77.321c0.503,0,0.948-0.133,1.336-0.398s0.671-0.62,0.851-1.063v-2.055
		h-1.355c-0.781,0.011-1.369,0.187-1.764,0.527c-0.395,0.341-0.593,0.801-0.593,1.379C116.698,76.785,117.206,77.321,118.223,77.321
		z"/>
	<path fill="#F3F3F3" d="M129.343,69.547l0.024,1.344c0.247-0.458,0.561-0.823,0.943-1.094c0.383-0.271,0.818-0.406,1.306-0.406
		c1.453,0,2.197,0.982,2.233,2.945V78h-0.848v-5.57c-0.005-0.755-0.136-1.313-0.392-1.672c-0.258-0.359-0.66-0.539-1.209-0.539
		c-0.447,0-0.849,0.171-1.205,0.512c-0.358,0.341-0.628,0.809-0.813,1.402V78h-0.855v-8.453H129.343z"/>
	<path fill="#F3F3F3" d="M145.462,78c-0.076-0.271-0.128-0.661-0.153-1.172c-0.257,0.422-0.587,0.749-0.99,0.98
		c-0.402,0.231-0.841,0.348-1.313,0.348c-0.719,0-1.278-0.206-1.68-0.617c-0.4-0.411-0.601-0.997-0.601-1.758
		c0-0.828,0.278-1.484,0.837-1.969c0.556-0.484,1.326-0.729,2.307-0.734h1.432v-1.18c0-0.604-0.147-1.038-0.444-1.301
		c-0.294-0.263-0.727-0.395-1.296-0.395c-0.529,0-0.963,0.156-1.303,0.469c-0.338,0.313-0.507,0.716-0.507,1.211l-0.854-0.008
		c0-0.692,0.255-1.28,0.77-1.762c0.513-0.481,1.157-0.723,1.934-0.723c0.835,0,1.47,0.214,1.901,0.641
		c0.431,0.427,0.646,1.05,0.646,1.867v4.148c0,0.828,0.075,1.448,0.224,1.859V78H145.462z M143.114,77.321
		c0.503,0,0.947-0.133,1.336-0.398c0.387-0.266,0.67-0.62,0.851-1.063v-2.055h-1.355c-0.78,0.011-1.369,0.187-1.765,0.527
		c-0.395,0.341-0.593,0.801-0.593,1.379C141.588,76.785,142.097,77.321,143.114,77.321z"/>
	<path fill="#F3F3F3" d="M153.118,73.383c0-1.333,0.224-2.332,0.676-2.996s1.13-0.996,2.033-0.996c0.961,0,1.674,0.445,2.142,1.336
		l0.047-1.18h0.792v8.695c-0.004,1.021-0.244,1.797-0.72,2.328c-0.475,0.531-1.167,0.797-2.076,0.797
		c-0.456,0-0.917-0.114-1.381-0.343c-0.466-0.229-0.817-0.507-1.06-0.836l0.401-0.625c0.569,0.661,1.229,0.992,1.979,0.992
		c0.693,0,1.198-0.187,1.513-0.561c0.316-0.374,0.478-0.942,0.481-1.706v-1.343c-0.466,0.808-1.175,1.211-2.126,1.211
		c-0.866,0-1.53-0.331-1.99-0.992c-0.46-0.661-0.697-1.617-0.711-2.867V73.383z M153.98,74.172c0,1.083,0.161,1.88,0.485,2.391
		c0.322,0.511,0.831,0.766,1.524,0.766c0.923,0,1.575-0.445,1.955-1.336v-4.32c-0.386-0.963-1.032-1.445-1.939-1.445
		c-0.699,0-1.21,0.253-1.534,0.758c-0.322,0.505-0.487,1.287-0.491,2.344V74.172z"/>
	<path fill="#F3F3F3" d="M168.773,78.157c-0.98,0-1.748-0.325-2.303-0.977c-0.554-0.651-0.836-1.578-0.847-2.781v-1.031
		c0-1.239,0.266-2.212,0.8-2.918c0.534-0.706,1.27-1.059,2.202-1.059c0.904,0,1.594,0.3,2.069,0.898
		c0.476,0.599,0.717,1.516,0.727,2.75v0.813h-4.951v0.477c0,0.969,0.205,1.716,0.611,2.242c0.409,0.526,0.984,0.789,1.729,0.789
		c0.823,0,1.487-0.305,1.996-0.914l0.446,0.578C170.709,77.779,169.882,78.157,168.773,78.157z M168.626,70.204
		c-0.672,0-1.188,0.241-1.552,0.723c-0.361,0.482-0.56,1.187-0.595,2.113h4.088v-0.227C170.526,71.074,169.88,70.204,168.626,70.204
		z"/>
	<path fill="#F3F3F3" d="M178.962,69.547l0.023,1.266c0.519-0.948,1.264-1.422,2.234-1.422c1.072,0,1.766,0.519,2.078,1.555
		c0.262-0.516,0.6-0.903,1.014-1.164c0.413-0.26,0.862-0.391,1.352-0.391c1.499,0,2.266,0.979,2.303,2.938V78h-0.854v-5.617
		c-0.012-0.729-0.146-1.272-0.401-1.629c-0.257-0.356-0.678-0.535-1.263-0.535c-0.528,0.011-0.977,0.219-1.34,0.625
		c-0.365,0.406-0.574,0.917-0.625,1.531V78h-0.862v-5.594c0-0.739-0.134-1.289-0.404-1.648c-0.27-0.359-0.688-0.539-1.258-0.539
		c-0.468,0-0.872,0.164-1.214,0.492s-0.59,0.797-0.743,1.406V78h-0.854v-8.453H178.962z"/>
	<path fill="#F3F3F3" d="M197.885,78.157c-0.98,0-1.748-0.325-2.303-0.977c-0.554-0.651-0.837-1.578-0.847-2.781v-1.031
		c0-1.239,0.266-2.212,0.8-2.918c0.534-0.706,1.27-1.059,2.202-1.059c0.904,0,1.594,0.3,2.069,0.898
		c0.475,0.599,0.717,1.516,0.727,2.75v0.813h-4.951v0.477c0,0.969,0.205,1.716,0.611,2.242c0.408,0.526,0.984,0.789,1.729,0.789
		c0.823,0,1.487-0.305,1.996-0.914l0.446,0.578C199.82,77.779,198.993,78.157,197.885,78.157z M197.737,70.204
		c-0.672,0-1.188,0.241-1.552,0.723c-0.361,0.482-0.56,1.187-0.596,2.113h4.089v-0.227
		C199.638,71.074,198.991,70.204,197.737,70.204z"/>
	<path fill="#F3F3F3" d="M208.104,69.547l0.023,1.344c0.246-0.458,0.561-0.823,0.943-1.094c0.383-0.271,0.817-0.406,1.305-0.406
		c1.454,0,2.198,0.982,2.233,2.945V78h-0.847v-5.57c-0.006-0.755-0.136-1.313-0.393-1.672c-0.258-0.359-0.66-0.539-1.208-0.539
		c-0.448,0-0.85,0.171-1.207,0.512c-0.357,0.341-0.626,0.809-0.811,1.402V78h-0.857v-8.453H208.104z"/>
	<path fill="#F3F3F3" d="M221.104,67.391v2.156h1.424v0.781h-1.424v5.617c0,0.464,0.066,0.809,0.202,1.035
		c0.138,0.227,0.363,0.34,0.682,0.34c0.14,0,0.344-0.026,0.617-0.078l0.023,0.781c-0.196,0.088-0.476,0.133-0.841,0.133
		c-1,0-1.515-0.698-1.54-2.094v-5.734h-1.285v-0.781h1.285v-2.156H221.104z"/>
</g>
</svg>
