<?xml version="1.0" encoding="utf-8"?>
<!-- Generator: Adobe Illustrator 16.0.0, SVG Export Plug-In . SVG Version: 6.00 Build 0)  -->
<!DOCTYPE svg PUBLIC "-//W3C//DTD SVG 1.1//EN" "http://www.w3.org/Graphics/SVG/1.1/DTD/svg11.dtd">
<svg version="1.1" id="Layer_1" xmlns="http://www.w3.org/2000/svg" xmlns:xlink="http://www.w3.org/1999/xlink" x="0px" y="0px" viewBox="0 0 500 500" enable-background="new 0 0 500 500" xml:space="preserve" class="header_header__logo__UR7Xr">
  <g>
    <path class="st0" d="M371.84,223.76c-2.31-1.62-6.36-2.43-12.14-2.43h-13.53v23.93h13.18c6.17,0,10.37-1,12.6-3.01 c2.23-2,3.35-5.18,3.35-9.54C375.31,228.37,374.16,225.38,371.84,223.76z"></path>
    <path class="st0" d="M358.14,141.5H141.86c-62.15,0-112.72,48.67-112.72,108.5c0,21.57,10.05,46.99,25.26,69.11L29.87,358.5h328.27 c62.15,0,112.72-48.67,112.72-108.5S420.29,141.5,358.14,141.5z M185.73,286.65h-18.03l-38.5-50.63v50.63h-18.03v-80.81h16.88 l39.65,52.02v-52.02h18.03V286.65z M245.15,263.88c4.55,4.55,10.06,6.82,16.53,6.82c8.86,0,16.11-3.51,21.73-10.52l11.56,11.91 c-9.17,10.33-19.98,15.49-32.43,15.49c-12.45,0-22.7-3.93-30.75-11.79c-8.05-7.86-12.08-17.78-12.08-29.77 c0-11.98,4.1-21.98,12.31-30C240.23,208,250.27,204,262.14,204c13.25,0,24.35,5.05,33.29,15.14l-11.21,12.72 c-5.7-7.09-12.79-10.64-21.27-10.64c-6.78,0-12.58,2.22-17.4,6.65c-4.82,4.43-7.23,10.4-7.23,17.92 C238.32,253.3,240.6,259.33,245.15,263.88z M376.58,286.65l-17.92-25.78h-12.49v25.78h-18.03v-80.81h30.64 c12.56,0,21.52,2.12,26.88,6.36c5.36,4.24,8.04,11.06,8.04,20.46c0,12.95-5.13,21.31-15.38,25.09l20.46,28.9H376.58z"></path>
  </g>
</svg>