<?xml version="1.0" encoding="utf-8"?>
<!-- Generator: Adobe Illustrator 16.0.0, SVG Export Plug-In . SVG Version: 6.00 Build 0)  -->
<!DOCTYPE svg PUBLIC "-//W3C//DTD SVG 1.1//EN" "http://www.w3.org/Graphics/SVG/1.1/DTD/svg11.dtd">
<svg version="1.1" xmlns="http://www.w3.org/2000/svg" xmlns:xlink="http://www.w3.org/1999/xlink" x="0px" y="0px" width="216px"
	 height="204.696px" viewBox="0 0 216 204.696" enable-background="new 0 0 216 204.696" xml:space="preserve">
<g id="Layer_2">
</g>
<g id="Layer_1">
	<g>
		<path fill="#F1F2F2" d="M57.141,159.485h101.72c6.586,0,11.93-5.34,11.93-11.93c0-6.588-5.344-11.93-11.93-11.93H57.141
			c-18.351,0-33.279-14.928-33.279-33.278c0-18.35,14.928-33.278,33.279-33.278h101.72c6.586,0,11.93-5.342,11.93-11.931
			s-5.344-11.93-11.93-11.93H57.141c-12.41,0-23.899,3.989-33.279,10.735V11.93C23.862,5.341,18.521,0,11.933,0
			C5.343,0,0.001,5.341,0.001,11.93v180.834c0,6.588,5.342,11.93,11.931,11.93c6.588,0,11.93-5.342,11.93-11.93V148.75
			C33.242,155.497,44.731,159.485,57.141,159.485z"/>
		<path fill="#F1F2F2" d="M192.275,102.348c14.414-10.459,23.723-26.828,23.723-45.208c0-31.507-27.322-57.139-60.904-57.139
			L57.141,0C50.553,0,45.21,5.341,45.21,11.93s5.342,11.931,11.931,11.931l97.953,0.001c20.426,0,37.045,14.928,37.045,33.278
			c0,18.35-16.619,33.278-37.045,33.278l-97.953-0.002c-6.588,0-11.931,5.342-11.931,11.931c0,6.588,5.342,11.931,11.931,11.931
			h97.953c20.426,0,37.045,14.93,37.045,33.279c0,18.352-16.619,33.279-37.045,33.279l-97.953-0.002
			c-6.588,0-11.931,5.344-11.931,11.93c0,6.588,5.342,11.93,11.931,11.93l97.953,0.002c33.582,0,60.904-25.631,60.904-57.139
			C215.998,129.178,206.689,112.809,192.275,102.348z"/>
	</g>
</g>
</svg>
