<?xml version="1.0" encoding="utf-8"?>
<!-- Generator: Adobe Illustrator 23.0.4, SVG Export Plug-In . SVG Version: 6.00 Build 0)  -->
<svg version="1.1" id="Layer_1" xmlns="http://www.w3.org/2000/svg" xmlns:xlink="http://www.w3.org/1999/xlink" x="0px" y="0px"
	 viewBox="0 0 350 350" style="enable-background:new 0 0 350 350;" xml:space="preserve">
<style type="text/css">
	.st0{fill:#F1F2F2;}
</style>
<circle cx="175" cy="175" r="175"/>
<g>
	<g>
		<g>
			<path class="st0" d="M133.6,221.6h82.9c5.4,0,9.7-4.3,9.7-9.7c0-5.4-4.3-9.7-9.7-9.7h-82.9c-15,0-27.2-12.2-27.2-27.2
				s12.2-27.2,27.2-27.2h82.9c5.4,0,9.7-4.3,9.7-9.7c0-5.4-4.3-9.7-9.7-9.7h-82.9c-10,0-19.5,3.2-27.2,8.8v-35.8
				c0-5.4-4.3-9.7-9.7-9.7c-5.4,0-9.7,4.3-9.7,9.7v147.3c0,5.4,4.3,9.7,9.7,9.7c5.4,0,9.7-4.3,9.7-9.7v-35.8
				C114,218.4,123.4,221.6,133.6,221.6z"/>
			<path class="st0" d="M243.7,175c11.7-8.5,19.3-21.9,19.3-36.9c0-25.6-22.2-46.6-49.6-46.6h-79.8c-5.4,0-9.7,4.3-9.7,9.7
				c0,5.4,4.3,9.7,9.7,9.7h79.8c16.7,0,30.3,12.2,30.3,27.2s-13.6,27.2-30.3,27.2h-79.8c-5.4,0-9.7,4.3-9.7,9.7
				c0,5.4,4.3,9.7,9.7,9.7h79.8c16.7,0,30.3,12.2,30.3,27.2c0,15-13.6,27.2-30.3,27.2h-79.8c-5.4,0-9.7,4.3-9.7,9.7s4.3,9.7,9.7,9.7
				h79.8c27.3,0,49.6-20.8,49.6-46.6C263,196.9,255.4,183.6,243.7,175z"/>
		</g>
	</g>
</g>
</svg>
